<?xml version="1.0" encoding="UTF-8"?>
<!DOCTYPE svg PUBLIC "-//W3C//DTD SVG 1.1//EN" "http://www.w3.org/Graphics/SVG/1.1/DTD/svg11.dtd">
<svg version="1.1" width="320.5" height="170">
  <g id="Layer_2" class="fragment" data-fragment-index="1">
    <g display="none">
      <path d="M189.167,44.758 L203.33,44.758 L203.33,72.091 L189.167,72.091 z" fill="#FFFFFF"/>
      <path d="M189.167,44.758 L203.33,44.758 L203.33,72.091 L189.167,72.091 z" fill-opacity="0" stroke="#000000" stroke-width="1" stroke-miterlimit="10"/>
    </g>
    <g display="none">
      <path d="M36.046,31.092 L50.208,31.092 L50.208,58.425 L36.046,58.425 z" fill="#FFFFFF"/>
      <path d="M36.046,31.092 L50.208,31.092 L50.208,58.425 L36.046,58.425 z" fill-opacity="0" stroke="#000000" stroke-width="1" stroke-miterlimit="10"/>
    </g>
  </g>
  <g id="Layer_1" class="fragment" data-fragment-index="2">
    <path d="M259,137.5 C282.515,137.369 310.626,118.613 310.626,95.245 C310.626,71.796 291.472,52.786 267.845,52.786 C264.378,52.786 261.012,53.205 257.784,53.978 C251.311,33.491 222.633,18.046 188.226,18.046 C174.745,18.046 162.141,20.418 151.409,24.533 C143.098,15.042 130.901,9.04 117.294,9.04 C93.363,9.04 73.777,27.585 72.087,51.083 C65.822,46.385 58.201,43.62 49.972,43.62 C28.654,43.62 11.373,62.124 11.373,84.952 C11.373,107.78 28.654,126.285 49.972,126.285 C52.196,126.285 54.372,126.072 56.493,125.686 C62.5,147 75.562,146.864 87.337,152.143" fill-opacity="0" stroke="#000000" stroke-width="1" stroke-miterlimit="10"/>
    <path d="M171.331,155.856 C179.032,153.622 186.015,150.714 192.009,147.259 C199.142,153.299 208.868,155.274 219.275,157.003 C242.5,160.863 259,142 259,137.5" fill-opacity="0" stroke="#000000" stroke-width="1" stroke-miterlimit="10"/>
    <path d="M162.433,144.363" fill-opacity="0" stroke="#000000" stroke-width="1" stroke-miterlimit="10"/>
    <path d="M162.068,144.363" fill-opacity="0" stroke="#000000" stroke-width="1" stroke-miterlimit="10"/>
    <path d="M87.337,152.143 C100.595,157.618 116.943,160.864 134.659,160.864 C157,160.864 166.382,156.398 171.331,155.857" fill-opacity="0" stroke="#000000" stroke-width="1" stroke-miterlimit="10"/>
  </g>
</svg>
