<?xml version="1.0" standalone="no"?>
<!DOCTYPE svg PUBLIC "-//W3C//DTD SVG 20010904//EN" "http://www.w3.org/TR/2001/REC-SVG-20010904/DTD/svg10.dtd">
<svg version="1.0" width="75.000000pt" height="117.000000pt" preserveAspectRatio="xMidYMid meet">
<metadata>
Created by potrace 1.12, written by Peter Selinger 2001-2015
</metadata>
<g transform="translate(0.000000,117.000000) scale(0.100000,-0.100000)" fill="#000000" stroke="none">
<path d="M139 1116 c-46 -31 -63 -72 -57 -137 6 -55 42 -105 85 -115 20 -5 23 -13 23 -49 0 -40 -2 -44 -33 -54 -35 -12 -86 -59 -107 -101 -16 -31 -16 -119 0 -150 21 -42 72 -89 107 -101 31 -10 33 -14 33 -54 0 -36 -3 -44 -23 -49 -12 -3 -35 -19 -51 -35 -38 -40 -48 -118 -21 -168 56 -104 208 -97 256 13 32 72 7 144 -63 184 -34 19 -38 26 -38 60 0 33 4 39 30 49 17 5 45 20 62 32 29 21 32 22 62 5 28 -15 31 -21 31 -65 0 -53 19 -88 68 -125 38 -28 113 -27 155 3 87 62 82 200 -9 247 -42 21 -130 15 -159 -11 -20 -18 -22 -18 -53 -2 -32 18 -33 19 -33 92 0 73 1 74 33 92 31 16 33 16 53 -2 29 -26 117 -32 159 -11 43 23 71 71 71 124 0 86 -58 146 -142 146 -82 0 -143 -62 -143 -145 0 -44 -3 -50 -31 -65 -30 -17 -33 -16 -62 5 -17 12 -45 27 -62 32 -26 10 -30 16 -30 50 0 35 4 41 38 58 68 35 95 113 63 185 -37 84 -137 113 -212 62z m125 -67 c50 -40 24 -119 -40 -119 -68 0 -97 68 -49 115 30 30 54 31 89 4z m365 -215 c27 -35 26 -59 -4 -89 -45 -46 -115 -19 -115 45 0 65 79 94 119 44z m-337 -181 c64 -61 17 -168 -73 -168 -81 0 -127 96 -78 159 42 53 102 56 151 9z m333 -228 c31 -30 32 -62 3 -92 -43 -46 -118 -16 -118 47 0 64 70 91 115 45z m-351 -207 c24 -34 20 -73 -10 -97 -15 -12 -35 -21 -46 -21 -27 0 -68 45 -68 75 0 59 91 90 124 43z"/>
</g>
</svg>
