<?xml version="1.0" encoding="UTF-8"?>
<!DOCTYPE svg PUBLIC "-//W3C//DTD SVG 1.1//EN" "http://www.w3.org/Graphics/SVG/1.1/DTD/svg11.dtd">
<svg version="1.1" width="612" height="500">
  <g id="Layer_1">
    <g>
      <g>
        <g>
          <path d="M0.5,11.248 L601.679,10.123 L601.982,172.123 L0.803,173.248 L0.5,11.248 z" fill="#4D86F9"/>
          <path d="M0.5,11.248 L601.679,10.123 L601.982,172.123 L0.803,173.248 L0.5,11.248 z" fill-opacity="0" stroke="#FFFCFC" stroke-width="1.5"/>
        </g>
        <text transform="matrix(1, 0, 0, 1, 77.295, 95.742)">
          <tspan x="-68.144" y="-49" font-family="HelveticaNeue" font-size="18" fill="#FFFFFF">Error &lt;ts&gt; msg1</tspan>
          <tspan x="-68.144" y="-27" font-family="HelveticaNeue" font-size="18" fill="#FFFFFF">Error &lt;ts&gt; msg3</tspan>
        </text>
        <text transform="matrix(1, 0, 0, 1, 528.173, 91.992)">
          <tspan x="-73.309" y="-43.75" font-family="HelveticaNeue" font-size="18" fill="#FFFFFF">Error &lt;ts&gt; msg12</tspan>
          <tspan x="-73.309" y="-21.75" font-family="HelveticaNeue" font-size="18" fill="#FFFFFF">Error &lt;ts&gt; msg13</tspan>
        </text>
        <text transform="matrix(1, 0, 0, 1, 377.091, 86.242)">
          <tspan x="-71.394" y="-40.5" font-family="HelveticaNeue" font-size="18" fill="#FFFFFF">Error &lt;ts&gt; msg9</tspan>
          <tspan x="-71.394" y="-18.5" font-family="HelveticaNeue" font-size="18" fill="#FFFFFF">Error &lt;ts&gt; msg10</tspan>
        </text>
        <text transform="matrix(1, 0, 0, 1, 227.424, 94.575)">
          <tspan x="-70.06" y="-49" font-family="HelveticaNeue" font-size="18" fill="#FFFFFF">Error &lt;ts&gt; msg7</tspan>
        </text>
      </g>
      <path d="M150.984,9.75 L150.484,171.25" fill-opacity="0" stroke="#FFFCFC" stroke-width="1.5" stroke-dasharray="30,7.5,1.5,7.5,1.5,7.5"/>
      <path d="M451.484,12.417 L450.984,173.917" fill-opacity="0" stroke="#FFFCFC" stroke-width="1.5" stroke-dasharray="30,7.5,1.5,7.5,1.5,7.5"/>
      <path d="M300.333,13.083 L299.833,174.583" fill-opacity="0" stroke="#FFFCFC" stroke-width="1.5" stroke-dasharray="30,7.5,1.5,7.5,1.5,7.5"/>
    </g>
    <g>
      <path d="M70.741,158.333 C40.733,158.333 16.408,149.379 16.408,138.333 C16.408,127.288 40.733,118.333 70.741,118.333 C100.748,118.333 125.074,127.288 125.074,138.333 C125.074,149.379 100.748,158.333 70.741,158.333 z" fill="#EEF901"/>
      <text transform="matrix(1, 0, 0, 1, 74.241, 138.333)">
        <tspan x="-48.167" y="3" font-family="Consolas" font-size="18" fill="#000000">ErrorsRDD</tspan>
      </text>
    </g>
    <g>
      <path d="M299.833,174.583 L299.532,262.1" fill-opacity="0" stroke="#176600" stroke-width="3" stroke-dasharray="9,6"/>
      <path d="M299.532,262.1 L295.342,259.286 L299.503,270.5 L303.742,259.314 z" fill="#176600" fill-opacity="1" stroke="#176600" stroke-width="3" stroke-opacity="1"/>
    </g>
  </g>
  <g id="Layer_2" class="fragment" data-fragment-index="1">
    <g>
      <text transform="matrix(1, 0, 0, 1, 374.379, 210)">
        <tspan x="-59.379" y="5.5" font-family="Consolas" font-size="24" fill="#176600">collect()</tspan>
      </text>
      <path d="M326.016,215.066 Q325.219,215.371 324.381,215.518 Q323.543,215.664 322.652,215.664 Q319.863,215.664 318.357,214.152 Q316.852,212.641 316.852,209.734 Q316.852,208.34 317.285,207.203 Q317.719,206.066 318.504,205.258 Q319.289,204.449 320.379,204.01 Q321.469,203.57 322.781,203.57 Q323.695,203.57 324.492,203.699 Q325.289,203.828 326.016,204.121 L326.016,206.066 Q325.254,205.668 324.463,205.486 Q323.672,205.305 322.828,205.305 Q322.043,205.305 321.346,205.604 Q320.648,205.902 320.121,206.465 Q319.594,207.027 319.289,207.836 Q318.984,208.645 318.984,209.664 Q318.984,211.797 320.021,212.857 Q321.059,213.918 322.898,213.918 Q323.73,213.918 324.51,213.73 Q325.289,213.543 326.016,213.168 z M340.312,209.523 Q340.312,210.895 339.926,212.037 Q339.539,213.18 338.812,213.994 Q338.086,214.809 337.043,215.26 Q336,215.711 334.676,215.711 Q333.41,215.711 332.408,215.318 Q331.406,214.926 330.709,214.164 Q330.012,213.402 329.643,212.277 Q329.273,211.152 329.273,209.688 Q329.273,208.316 329.66,207.186 Q330.047,206.055 330.773,205.24 Q331.5,204.426 332.543,203.975 Q333.586,203.523 334.91,203.523 Q336.176,203.523 337.178,203.916 Q338.18,204.309 338.877,205.064 Q339.574,205.82 339.943,206.945 Q340.312,208.07 340.312,209.523 z M338.227,209.617 Q338.227,208.527 337.986,207.713 Q337.746,206.898 337.301,206.354 Q336.855,205.809 336.217,205.533 Q335.578,205.258 334.793,205.258 Q333.879,205.258 333.229,205.615 Q332.578,205.973 332.162,206.57 Q331.746,207.168 331.553,207.959 Q331.359,208.75 331.359,209.617 Q331.359,210.707 331.6,211.527 Q331.84,212.348 332.285,212.893 Q332.73,213.438 333.363,213.713 Q333.996,213.988 334.793,213.988 Q335.707,213.988 336.357,213.631 Q337.008,213.273 337.424,212.676 Q337.84,212.078 338.033,211.287 Q338.227,210.496 338.227,209.617 z M347.273,200.617 L343.793,200.617 L343.793,198.941 L349.336,198.941 L349.336,213.801 L352.84,213.801 L352.84,215.5 L343.406,215.5 L343.406,213.801 L347.273,213.801 z M360.469,200.617 L356.988,200.617 L356.988,198.941 L362.531,198.941 L362.531,213.801 L366.035,213.801 L366.035,215.5 L356.602,215.5 L356.602,213.801 L360.469,213.801 z M379.594,208.996 Q379.594,209.43 379.582,209.723 Q379.57,210.016 379.547,210.273 L371.285,210.273 Q371.285,212.078 372.293,213.045 Q373.301,214.012 375.199,214.012 Q375.715,214.012 376.23,213.971 Q376.746,213.93 377.227,213.859 Q377.707,213.789 378.146,213.701 Q378.586,213.613 378.961,213.508 L378.961,215.184 Q378.129,215.418 377.08,215.564 Q376.031,215.711 374.906,215.711 Q373.395,215.711 372.305,215.301 Q371.215,214.891 370.518,214.111 Q369.82,213.332 369.486,212.201 Q369.152,211.07 369.152,209.641 Q369.152,208.398 369.51,207.291 Q369.867,206.184 370.553,205.346 Q371.238,204.508 372.234,204.016 Q373.23,203.523 374.496,203.523 Q375.727,203.523 376.676,203.91 Q377.625,204.297 378.275,205.006 Q378.926,205.715 379.26,206.729 Q379.594,207.742 379.594,208.996 z M377.473,208.703 Q377.508,207.918 377.32,207.268 Q377.133,206.617 376.74,206.148 Q376.348,205.68 375.762,205.416 Q375.176,205.152 374.402,205.152 Q373.734,205.152 373.184,205.41 Q372.633,205.668 372.234,206.137 Q371.836,206.605 371.59,207.262 Q371.344,207.918 371.285,208.703 z M391.992,215.066 Q391.195,215.371 390.357,215.518 Q389.52,215.664 388.629,215.664 Q385.84,215.664 384.334,214.152 Q382.828,212.641 382.828,209.734 Q382.828,208.34 383.262,207.203 Q383.695,206.066 384.48,205.258 Q385.266,204.449 386.355,204.01 Q387.445,203.57 388.758,203.57 Q389.672,203.57 390.469,203.699 Q391.266,203.828 391.992,204.121 L391.992,206.066 Q391.23,205.668 390.439,205.486 Q389.648,205.305 388.805,205.305 Q388.02,205.305 387.322,205.604 Q386.625,205.902 386.098,206.465 Q385.57,207.027 385.266,207.836 Q384.961,208.645 384.961,209.664 Q384.961,211.797 385.998,212.857 Q387.035,213.918 388.875,213.918 Q389.707,213.918 390.486,213.73 Q391.266,213.543 391.992,213.168 z M405.527,215.336 Q404.836,215.512 404.098,215.588 Q403.359,215.664 402.598,215.664 Q400.383,215.664 399.293,214.662 Q398.203,213.66 398.203,211.586 L398.203,205.445 L394.91,205.445 L394.91,203.734 L398.203,203.734 L398.203,200.5 L400.242,199.973 L400.242,203.734 L405.527,203.734 L405.527,205.445 L400.242,205.445 L400.242,211.422 Q400.242,212.688 400.916,213.314 Q401.59,213.941 402.902,213.941 Q403.465,213.941 404.133,213.854 Q404.801,213.766 405.527,213.578 z M416.285,220.422 Q410.883,215.418 410.883,209.359 Q410.883,207.941 411.17,206.529 Q411.457,205.117 412.096,203.699 Q412.734,202.281 413.783,200.863 Q414.832,199.445 416.332,198.051 L417.516,199.258 Q412.969,203.746 412.969,209.207 Q412.969,211.926 414.117,214.434 Q415.266,216.941 417.516,219.168 z M424.84,198.051 Q430.242,203.055 430.242,209.184 Q430.242,210.449 429.984,211.809 Q429.727,213.168 429.105,214.592 Q428.484,216.016 427.436,217.48 Q426.387,218.945 424.793,220.422 L423.609,219.215 Q425.895,216.953 427.02,214.492 Q428.145,212.031 428.145,209.336 Q428.145,203.758 423.609,199.305 z" fill-opacity="0" stroke="#176600" stroke-width="1"/>
    </g>
  </g>
  <g id="Layer_3" class="fragment" data-fragment-index="2">
    <g>
      <g>
        <path d="M183.741,286 L418.741,286 L418.741,470.5 L183.741,470.5 L183.741,286 z" fill="#908C8C"/>
        <path d="M183.741,286 L418.741,286 L418.741,470.5 L183.741,470.5 L183.741,286 z" fill-opacity="0" stroke="#000000" stroke-width="1.5"/>
      </g>
      <g>
        <path d="M190.741,298 L411.241,298 L411.241,466 L190.741,466 L190.741,298 z" fill="#020202"/>
        <path d="M190.741,298 L411.241,298 L411.241,466 L190.741,466 L190.741,298 z" fill-opacity="0" stroke="#000000" stroke-width="1.5"/>
      </g>
      <text transform="matrix(1, 0, 0, 1, 300.741, 375.75)">
        <tspan x="-70.781" y="4.25" font-family="HelveticaNeue" font-size="21" fill="#FFFFFF">Driver Program</tspan>
      </text>
    </g>
  </g>
</svg>
