<?xml version="1.0" encoding="UTF-8"?>
<!DOCTYPE svg PUBLIC "-//W3C//DTD SVG 1.1//EN" "http://www.w3.org/Graphics/SVG/1.1/DTD/svg11.dtd">
<svg version="1.1" width="792" height="612">
  <g id="Layer_1" class="fragment" data-fragment-index="1">
    <g>
      <g>
        <path d="M15.5,134.375 L257,134.375 L257,516.625 L15.5,516.625 L15.5,134.375 z" fill="#908C8C"/>
        <path d="M16,134.875 L257.5,134.875 L257.5,517.125 L16,517.125 L16,134.875 z" fill-opacity="0" stroke="#000000" stroke-width="1.5"/>
      </g>
      <g>
        <g>
          <path d="M25.211,150.375 L131.711,150.375 L131.711,198.375 L25.211,198.375 L25.211,150.375 z" fill="#F29F56"/>
          <path d="M25.711,150.875 L132.211,150.875 L132.211,198.875 L25.711,198.875 L25.711,150.875 z" fill-opacity="0" stroke="#000000" stroke-width="1.5"/>
        </g>
        <text transform="matrix(1, 0, 0, 1, 78.877, 174.125)">
          <tspan x="-34.148" y="7" font-family="Helvetica" font-size="21" fill="#000000">Worker</tspan>
        </text>
      </g>
      <g>
        <path d="M25.523,214.5 L221,214.5 L221,416 L25.523,416 L25.523,214.5 z" fill="#CA9C09"/>
        <path d="M26.023,215 L221.5,215 L221.5,416.5 L26.023,416.5 L26.023,215 z" fill-opacity="0" stroke="#000000" stroke-width="3"/>
      </g>
      <g>
        <g>
          <path d="M165.773,298.375 C159.352,298.375 154.148,293.002 154.148,286.375 C154.148,279.748 159.352,274.375 165.773,274.375 C172.193,274.375 177.398,279.748 177.398,286.375 C177.398,293.002 172.193,298.375 165.773,298.375 z" fill="#04A567"/>
          <path d="M166.273,298.875 C159.852,298.875 154.648,293.502 154.648,286.875 C154.648,280.248 159.852,274.875 166.273,274.875 C172.693,274.875 177.898,280.248 177.898,286.875 C177.898,293.502 172.693,298.875 166.273,298.875 z" fill-opacity="0" stroke="#029C1B" stroke-width="1.5"/>
        </g>
        <text transform="matrix(1, 0, 0, 1, 166.049, 284.625)">
          <tspan x="-5.081" y="5.5" font-family="Helvetica" font-size="15" fill="#FFFDFD">T</tspan>
        </text>
      </g>
      <g>
        <g>
          <path d="M165.398,274.375 C158.977,274.375 153.773,269.002 153.773,262.375 C153.773,255.748 158.977,250.375 165.398,250.375 C171.818,250.375 177.023,255.748 177.023,262.375 C177.023,269.002 171.818,274.375 165.398,274.375 z" fill="#04A567"/>
          <path d="M165.898,274.875 C159.477,274.875 154.273,269.502 154.273,262.875 C154.273,256.248 159.477,250.875 165.898,250.875 C172.318,250.875 177.523,256.248 177.523,262.875 C177.523,269.502 172.318,274.875 165.898,274.875 z" fill-opacity="0" stroke="#029C1B" stroke-width="1.5"/>
        </g>
        <text transform="matrix(1, 0, 0, 1, 165.674, 260.625)">
          <tspan x="-5.081" y="5.5" font-family="Helvetica" font-size="15" fill="#FFFDFD">T</tspan>
        </text>
      </g>
      <text transform="matrix(1, 0, 0, 1, 78.461, 229.5)">
        <tspan x="-36.017" y="6" font-family="Helvetica" font-size="18" fill="#000000">Executor</tspan>
      </text>
      <g>
        <g>
          <path d="M35.523,262 L134.5,262 L134.5,293.5 L35.523,293.5 L35.523,262 z" fill="#9DDDF4"/>
          <path d="M36.023,262.5 L135,262.5 L135,294 L36.023,294 L36.023,262.5 z" fill-opacity="0" stroke="#000000" stroke-width="1.5"/>
        </g>
        <text transform="matrix(1, 0, 0, 1, 88.472, 278.875)">
          <tspan x="-38.756" y="4.375" font-family="Helvetica" font-size="15" fill="#000000">RDD 1 (P1)</tspan>
        </text>
      </g>
      <g>
        <g>
          <path d="M196.75,301.625 C190.329,301.625 185.125,296.252 185.125,289.625 C185.125,282.998 190.329,277.625 196.75,277.625 C203.17,277.625 208.375,282.998 208.375,289.625 C208.375,296.252 203.17,301.625 196.75,301.625 z" fill="#04A567"/>
          <path d="M197.25,302.125 C190.829,302.125 185.625,296.752 185.625,290.125 C185.625,283.498 190.829,278.125 197.25,278.125 C203.67,278.125 208.875,283.498 208.875,290.125 C208.875,296.752 203.67,302.125 197.25,302.125 z" fill-opacity="0" stroke="#029C1B" stroke-width="1.5"/>
        </g>
        <text transform="matrix(1, 0, 0, 1, 197.026, 287.875)">
          <tspan x="-5.081" y="5.5" font-family="Helvetica" font-size="15" fill="#FFFDFD">T</tspan>
        </text>
      </g>
      <g>
        <g>
          <path d="M196.75,325.625 C190.329,325.625 185.125,320.252 185.125,313.625 C185.125,306.998 190.329,301.625 196.75,301.625 C203.17,301.625 208.375,306.998 208.375,313.625 C208.375,320.252 203.17,325.625 196.75,325.625 z" fill="#04A567"/>
          <path d="M197.25,326.125 C190.829,326.125 185.625,320.752 185.625,314.125 C185.625,307.498 190.829,302.125 197.25,302.125 C203.67,302.125 208.875,307.498 208.875,314.125 C208.875,320.752 203.67,326.125 197.25,326.125 z" fill-opacity="0" stroke="#029C1B" stroke-width="1.5"/>
        </g>
        <text transform="matrix(1, 0, 0, 1, 197.026, 311.875)">
          <tspan x="-5.081" y="5.5" font-family="Helvetica" font-size="15" fill="#FFFDFD">T</tspan>
        </text>
      </g>
      <g>
        <g>
          <path d="M165.773,325.625 C159.352,325.625 154.148,320.252 154.148,313.625 C154.148,306.998 159.352,301.625 165.773,301.625 C172.193,301.625 177.398,306.998 177.398,313.625 C177.398,320.252 172.193,325.625 165.773,325.625 z" fill="#04A567"/>
          <path d="M166.273,326.125 C159.852,326.125 154.648,320.752 154.648,314.125 C154.648,307.498 159.852,302.125 166.273,302.125 C172.693,302.125 177.898,307.498 177.898,314.125 C177.898,320.752 172.693,326.125 166.273,326.125 z" fill-opacity="0" stroke="#029C1B" stroke-width="1.5"/>
        </g>
        <text transform="matrix(1, 0, 0, 1, 166.049, 311.875)">
          <tspan x="-5.081" y="5.5" font-family="Helvetica" font-size="15" fill="#FFFDFD">T</tspan>
        </text>
      </g>
      <g>
        <g>
          <path d="M196.75,274.375 C190.329,274.375 185.125,269.002 185.125,262.375 C185.125,255.748 190.329,250.375 196.75,250.375 C203.17,250.375 208.375,255.748 208.375,262.375 C208.375,269.002 203.17,274.375 196.75,274.375 z" fill="#FF2A00"/>
          <path d="M197.25,274.875 C190.829,274.875 185.625,269.502 185.625,262.875 C185.625,256.248 190.829,250.875 197.25,250.875 C203.67,250.875 208.875,256.248 208.875,262.875 C208.875,269.502 203.67,274.875 197.25,274.875 z" fill-opacity="0" stroke="#590900" stroke-width="1.5"/>
        </g>
        <text transform="matrix(1, 0, 0, 1, 197.361, 260.625)">
          <tspan x="-5.416" y="5.5" font-family="Helvetica" font-size="15" fill="#FFFDFD">R</tspan>
        </text>
      </g>
      <g>
        <g>
          <path d="M134.5,433.125 L244.977,433.125 L244.977,506 L134.5,506 L134.5,433.125 z" fill="#CA9C09"/>
          <path d="M135,433.625 L245.477,433.625 L245.477,506.5 L135,506.5 L135,433.625 z" fill-opacity="0" stroke="#000000" stroke-width="3"/>
        </g>
        <g>
          <path d="M155.5,468.221 L223.977,468.221 L223.977,502.136 L155.5,502.136 L155.5,468.221 z" fill="#000000"/>
          <g>
            <path d="M156,468.721 L224.477,468.721 L224.477,502.636 L156,502.636 L156,468.721 z" fill="#000000"/>
            <path d="M156,468.721 L224.477,468.721 L224.477,502.636 L156,502.636 L156,468.721 z" fill-opacity="0" stroke="#000000" stroke-width="3"/>
          </g>
        </g>
        <text transform="matrix(1, 0, 0, 1, 189.738, 454.268)">
          <tspan x="-20.097" y="5.199" font-family="HelveticaNeue-Bold" font-size="14" fill="#000000">Driver</tspan>
        </text>
      </g>
    </g>
    <g>
      <g>
        <path d="M279.489,217.375 L520.989,217.375 L520.989,516.625 L279.489,516.625 L279.489,217.375 z" fill="#908C8C"/>
        <path d="M279.989,217.875 L521.489,217.875 L521.489,517.125 L279.989,517.125 L279.989,217.875 z" fill-opacity="0" stroke="#000000" stroke-width="1.5"/>
      </g>
      <g>
        <g>
          <path d="M302.5,229.625 L409,229.625 L409,277.625 L302.5,277.625 L302.5,229.625 z" fill="#F29F56"/>
          <path d="M303,230.125 L409.5,230.125 L409.5,278.125 L303,278.125 L303,230.125 z" fill-opacity="0" stroke="#000000" stroke-width="1.5"/>
        </g>
        <text transform="matrix(1, 0, 0, 1, 356.166, 253.375)">
          <tspan x="-34.148" y="7" font-family="Helvetica" font-size="21" fill="#000000">Worker</tspan>
        </text>
      </g>
      <g>
        <path d="M302.5,297.5 L497.977,297.5 L497.977,499 L302.5,499 L302.5,297.5 z" fill="#CA9C09"/>
        <g>
          <path d="M303,298 L498.477,298 L498.477,499.5 L303,499.5 L303,298 z" fill="#CA9C09"/>
          <path d="M303,298 L498.477,298 L498.477,499.5 L303,499.5 L303,298 z" fill-opacity="0" stroke="#000000" stroke-width="3"/>
        </g>
      </g>
      <g>
        <g>
          <path d="M442.75,381.375 C436.329,381.375 431.125,376.002 431.125,369.375 C431.125,362.748 436.329,357.375 442.75,357.375 C449.17,357.375 454.375,362.748 454.375,369.375 C454.375,376.002 449.17,381.375 442.75,381.375 z" fill="#04A567"/>
          <path d="M443.25,381.875 C436.829,381.875 431.625,376.502 431.625,369.875 C431.625,363.248 436.829,357.875 443.25,357.875 C449.67,357.875 454.875,363.248 454.875,369.875 C454.875,376.502 449.67,381.875 443.25,381.875 z" fill-opacity="0" stroke="#029C1B" stroke-width="1.5"/>
        </g>
        <text transform="matrix(1, 0, 0, 1, 443.026, 367.625)">
          <tspan x="-5.081" y="5.5" font-family="Helvetica" font-size="15" fill="#FFFDFD">T</tspan>
        </text>
      </g>
      <g>
        <g>
          <path d="M442.375,357.375 C435.954,357.375 430.75,352.002 430.75,345.375 C430.75,338.748 435.954,333.375 442.375,333.375 C448.795,333.375 454,338.748 454,345.375 C454,352.002 448.795,357.375 442.375,357.375 z" fill="#04A567"/>
          <path d="M442.875,357.875 C436.454,357.875 431.25,352.502 431.25,345.875 C431.25,339.248 436.454,333.875 442.875,333.875 C449.295,333.875 454.5,339.248 454.5,345.875 C454.5,352.502 449.295,357.875 442.875,357.875 z" fill-opacity="0" stroke="#029C1B" stroke-width="1.5"/>
        </g>
        <text transform="matrix(1, 0, 0, 1, 442.651, 343.625)">
          <tspan x="-5.081" y="5.5" font-family="Helvetica" font-size="15" fill="#FFFDFD">T</tspan>
        </text>
      </g>
      <text transform="matrix(1, 0, 0, 1, 355.437, 312.5)">
        <tspan x="-36.017" y="6" font-family="Helvetica" font-size="18" fill="#000000">Executor</tspan>
      </text>
      <g>
        <g>
          <path d="M312.5,345 L411.477,345 L411.477,376.5 L312.5,376.5 L312.5,345 z" fill="#9DDDF4"/>
          <path d="M313,345.5 L411.977,345.5 L411.977,377 L313,377 L313,345.5 z" fill-opacity="0" stroke="#000000" stroke-width="1.5"/>
        </g>
        <text transform="matrix(1, 0, 0, 1, 365.449, 361.875)">
          <tspan x="-38.756" y="4.375" font-family="Helvetica" font-size="15" fill="#000000">RDD 1 (P2)</tspan>
        </text>
      </g>
      <g>
        <g>
          <path d="M473.727,384.625 C467.306,384.625 462.102,379.252 462.102,372.625 C462.102,365.998 467.306,360.625 473.727,360.625 C480.147,360.625 485.352,365.998 485.352,372.625 C485.352,379.252 480.147,384.625 473.727,384.625 z" fill="#04A567"/>
          <path d="M474.227,385.125 C467.806,385.125 462.602,379.752 462.602,373.125 C462.602,366.498 467.806,361.125 474.227,361.125 C480.647,361.125 485.852,366.498 485.852,373.125 C485.852,379.752 480.647,385.125 474.227,385.125 z" fill-opacity="0" stroke="#029C1B" stroke-width="1.5"/>
        </g>
        <text transform="matrix(1, 0, 0, 1, 474.003, 370.875)">
          <tspan x="-5.081" y="5.5" font-family="Helvetica" font-size="15" fill="#FFFDFD">T</tspan>
        </text>
      </g>
      <g>
        <g>
          <path d="M473.727,408.625 C467.306,408.625 462.102,403.252 462.102,396.625 C462.102,389.998 467.306,384.625 473.727,384.625 C480.147,384.625 485.352,389.998 485.352,396.625 C485.352,403.252 480.147,408.625 473.727,408.625 z" fill="#04A567"/>
          <path d="M474.227,409.125 C467.806,409.125 462.602,403.752 462.602,397.125 C462.602,390.498 467.806,385.125 474.227,385.125 C480.647,385.125 485.852,390.498 485.852,397.125 C485.852,403.752 480.647,409.125 474.227,409.125 z" fill-opacity="0" stroke="#029C1B" stroke-width="1.5"/>
        </g>
        <text transform="matrix(1, 0, 0, 1, 474.003, 394.875)">
          <tspan x="-5.081" y="5.5" font-family="Helvetica" font-size="15" fill="#FFFDFD">T</tspan>
        </text>
      </g>
      <g>
        <g>
          <path d="M442.75,408.625 C436.329,408.625 431.125,403.252 431.125,396.625 C431.125,389.998 436.329,384.625 442.75,384.625 C449.17,384.625 454.375,389.998 454.375,396.625 C454.375,403.252 449.17,408.625 442.75,408.625 z" fill="#04A567"/>
          <path d="M443.25,409.125 C436.829,409.125 431.625,403.752 431.625,397.125 C431.625,390.498 436.829,385.125 443.25,385.125 C449.67,385.125 454.875,390.498 454.875,397.125 C454.875,403.752 449.67,409.125 443.25,409.125 z" fill-opacity="0" stroke="#029C1B" stroke-width="1.5"/>
        </g>
        <text transform="matrix(1, 0, 0, 1, 443.026, 394.875)">
          <tspan x="-5.081" y="5.5" font-family="Helvetica" font-size="15" fill="#FFFDFD">T</tspan>
        </text>
      </g>
      <g>
        <g>
          <path d="M473.727,358.5 C467.306,358.5 462.102,353.127 462.102,346.5 C462.102,339.873 467.306,334.5 473.727,334.5 C480.147,334.5 485.352,339.873 485.352,346.5 C485.352,353.127 480.147,358.5 473.727,358.5 z" fill="#04A567"/>
          <path d="M474.227,359 C467.806,359 462.602,353.627 462.602,347 C462.602,340.373 467.806,335 474.227,335 C480.647,335 485.852,340.373 485.852,347 C485.852,353.627 480.647,359 474.227,359 z" fill-opacity="0" stroke="#029C1B" stroke-width="1.5"/>
        </g>
        <text transform="matrix(1, 0, 0, 1, 474.003, 344.75)">
          <tspan x="-5.081" y="5.5" font-family="Helvetica" font-size="15" fill="#FFFDFD">T</tspan>
        </text>
      </g>
    </g>
    <text transform="matrix(1, 0, 0, 1, 396, 556.5)">
      <tspan x="-97.245" y="11" font-family="HelveticaNeue" font-size="30" fill="#000000">3-node cluster</tspan>
    </text>
    <g>
      <g>
        <path d="M546.5,217.375 L788,217.375 L788,516.625 L546.5,516.625 L546.5,217.375 z" fill="#908C8C"/>
        <path d="M547,217.875 L788.5,217.875 L788.5,517.125 L547,517.125 L547,217.875 z" fill-opacity="0" stroke="#000000" stroke-width="1.5"/>
      </g>
      <g>
        <g>
          <path d="M569.511,229.625 L676.011,229.625 L676.011,277.625 L569.511,277.625 L569.511,229.625 z" fill="#F29F56"/>
          <path d="M570.011,230.125 L676.511,230.125 L676.511,278.125 L570.011,278.125 L570.011,230.125 z" fill-opacity="0" stroke="#000000" stroke-width="1.5"/>
        </g>
        <text transform="matrix(1, 0, 0, 1, 623.178, 253.375)">
          <tspan x="-34.148" y="7" font-family="Helvetica" font-size="21" fill="#000000">Worker</tspan>
        </text>
      </g>
      <g>
        <path d="M569.511,297.5 L764.989,297.5 L764.989,499 L569.511,499 L569.511,297.5 z" fill="#CA9C09"/>
        <path d="M570.011,298 L765.489,298 L765.489,499.5 L570.011,499.5 L570.011,298 z" fill-opacity="0" stroke="#000000" stroke-width="3"/>
      </g>
      <g>
        <g>
          <path d="M709.761,381.375 C703.34,381.375 698.136,376.002 698.136,369.375 C698.136,362.748 703.34,357.375 709.761,357.375 C716.181,357.375 721.386,362.748 721.386,369.375 C721.386,376.002 716.181,381.375 709.761,381.375 z" fill="#04A567"/>
          <path d="M710.261,381.875 C703.84,381.875 698.636,376.502 698.636,369.875 C698.636,363.248 703.84,357.875 710.261,357.875 C716.681,357.875 721.886,363.248 721.886,369.875 C721.886,376.502 716.681,381.875 710.261,381.875 z" fill-opacity="0" stroke="#029C1B" stroke-width="1.5"/>
        </g>
        <text transform="matrix(1, 0, 0, 1, 710.038, 367.625)">
          <tspan x="-5.081" y="5.5" font-family="Helvetica" font-size="15" fill="#FFFDFD">T</tspan>
        </text>
      </g>
      <g>
        <g>
          <path d="M709.386,357.375 C702.965,357.375 697.761,352.002 697.761,345.375 C697.761,338.748 702.965,333.375 709.386,333.375 C715.806,333.375 721.011,338.748 721.011,345.375 C721.011,352.002 715.806,357.375 709.386,357.375 z" fill="#04A567"/>
          <path d="M709.886,357.875 C703.465,357.875 698.261,352.502 698.261,345.875 C698.261,339.248 703.465,333.875 709.886,333.875 C716.306,333.875 721.511,339.248 721.511,345.875 C721.511,352.502 716.306,357.875 709.886,357.875 z" fill-opacity="0" stroke="#029C1B" stroke-width="1.5"/>
        </g>
        <text transform="matrix(1, 0, 0, 1, 709.663, 343.625)">
          <tspan x="-5.081" y="5.5" font-family="Helvetica" font-size="15" fill="#FFFDFD">T</tspan>
        </text>
      </g>
      <text transform="matrix(1, 0, 0, 1, 622.449, 312.5)">
        <tspan x="-36.017" y="6" font-family="Helvetica" font-size="18" fill="#000000">Executor</tspan>
      </text>
      <g>
        <g>
          <path d="M579.511,345 L678.488,345 L678.488,376.5 L579.511,376.5 L579.511,345 z" fill="#9DDDF4"/>
          <path d="M580.011,345.5 L678.988,345.5 L678.988,377 L580.011,377 L580.011,345.5 z" fill-opacity="0" stroke="#000000" stroke-width="1.5"/>
        </g>
        <text transform="matrix(1, 0, 0, 1, 632.46, 361.875)">
          <tspan x="-38.756" y="4.375" font-family="Helvetica" font-size="15" fill="#000000">RDD 1 (P3)</tspan>
        </text>
      </g>
      <g>
        <g>
          <path d="M740.738,384.625 C734.317,384.625 729.113,379.252 729.113,372.625 C729.113,365.998 734.317,360.625 740.738,360.625 C747.158,360.625 752.363,365.998 752.363,372.625 C752.363,379.252 747.158,384.625 740.738,384.625 z" fill="#04A567"/>
          <path d="M741.238,385.125 C734.817,385.125 729.613,379.752 729.613,373.125 C729.613,366.498 734.817,361.125 741.238,361.125 C747.658,361.125 752.863,366.498 752.863,373.125 C752.863,379.752 747.658,385.125 741.238,385.125 z" fill-opacity="0" stroke="#029C1B" stroke-width="1.5"/>
        </g>
        <text transform="matrix(1, 0, 0, 1, 741.015, 370.875)">
          <tspan x="-5.081" y="5.5" font-family="Helvetica" font-size="15" fill="#FFFDFD">T</tspan>
        </text>
      </g>
      <g>
        <g>
          <path d="M740.738,408.625 C734.317,408.625 729.113,403.252 729.113,396.625 C729.113,389.998 734.317,384.625 740.738,384.625 C747.158,384.625 752.363,389.998 752.363,396.625 C752.363,403.252 747.158,408.625 740.738,408.625 z" fill="#04A567"/>
          <path d="M741.238,409.125 C734.817,409.125 729.613,403.752 729.613,397.125 C729.613,390.498 734.817,385.125 741.238,385.125 C747.658,385.125 752.863,390.498 752.863,397.125 C752.863,403.752 747.658,409.125 741.238,409.125 z" fill-opacity="0" stroke="#029C1B" stroke-width="1.5"/>
        </g>
        <text transform="matrix(1, 0, 0, 1, 741.015, 394.875)">
          <tspan x="-5.081" y="5.5" font-family="Helvetica" font-size="15" fill="#FFFDFD">T</tspan>
        </text>
      </g>
      <g>
        <g>
          <path d="M709.761,408.625 C703.34,408.625 698.136,403.252 698.136,396.625 C698.136,389.998 703.34,384.625 709.761,384.625 C716.181,384.625 721.386,389.998 721.386,396.625 C721.386,403.252 716.181,408.625 709.761,408.625 z" fill="#04A567"/>
          <path d="M710.261,409.125 C703.84,409.125 698.636,403.752 698.636,397.125 C698.636,390.498 703.84,385.125 710.261,385.125 C716.681,385.125 721.886,390.498 721.886,397.125 C721.886,403.752 716.681,409.125 710.261,409.125 z" fill-opacity="0" stroke="#029C1B" stroke-width="1.5"/>
        </g>
        <text transform="matrix(1, 0, 0, 1, 710.038, 394.875)">
          <tspan x="-5.081" y="5.5" font-family="Helvetica" font-size="15" fill="#FFFDFD">T</tspan>
        </text>
      </g>
      <g>
        <g>
          <path d="M740.738,358.5 C734.317,358.5 729.113,353.127 729.113,346.5 C729.113,339.873 734.317,334.5 740.738,334.5 C747.158,334.5 752.363,339.873 752.363,346.5 C752.363,353.127 747.158,358.5 740.738,358.5 z" fill="#04A567"/>
          <path d="M741.238,359 C734.817,359 729.613,353.627 729.613,347 C729.613,340.373 734.817,335 741.238,335 C747.658,335 752.863,340.373 752.863,347 C752.863,353.627 747.658,359 741.238,359 z" fill-opacity="0" stroke="#029C1B" stroke-width="1.5"/>
        </g>
        <text transform="matrix(1, 0, 0, 1, 741.015, 344.75)">
          <tspan x="-5.081" y="5.5" font-family="Helvetica" font-size="15" fill="#FFFDFD">T</tspan>
        </text>
      </g>
    </g>
    <g>
      <path d="M507.656,202.149" fill="#FFFFFF"/>
      <path d="M507.656,202.149" fill-opacity="0" stroke="#000000" stroke-width="1" stroke-miterlimit="10"/>
    </g>
    <g>
      <path d="M507.456,202.149" fill="#FFFFFF"/>
      <path d="M507.456,202.149" fill-opacity="0" stroke="#000000" stroke-width="1" stroke-miterlimit="10"/>
    </g>
    <g>
      <text transform="matrix(1, 0, 0, 1, 601.413, 73.824)">
        <tspan x="-50.004" y="-31" font-family="HelveticaNeue" font-size="24" fill="#000000">source of </tspan>
        <tspan x="-52.908" y="-2" font-family="HelveticaNeue" font-size="24" fill="#000000">streaming </tspan>
        <tspan x="-23.784" y="27" font-family="HelveticaNeue" font-size="24" fill="#000000">data</tspan>
      </text>
      <g>
        <path d="M680.273,101.884 C697.345,101.781 717.753,86.978 717.753,68.536 C717.753,50.029 703.848,35.026 686.695,35.026 C684.178,35.026 681.734,35.356 679.391,35.966 C674.691,19.797 653.871,7.608 628.893,7.608 C619.106,7.608 609.955,9.48 602.164,12.728 C596.13,5.237 587.276,0.5 577.397,0.5 C560.023,0.5 545.804,15.136 544.577,33.682 C540.029,29.974 534.496,27.792 528.522,27.792 C513.046,27.792 500.5,42.395 500.5,60.412 C500.5,78.429 513.046,93.033 528.522,93.033 C530.137,93.033 531.717,92.865 533.256,92.56 C537.617,109.382 547.1,109.275 555.649,113.441" fill-opacity="0" stroke="#000000" stroke-width="1" stroke-miterlimit="10"/>
        <path d="M616.627,116.372 C622.218,114.608 627.287,112.313 631.639,109.587 C636.817,114.353 643.878,115.912 651.434,117.277 C668.295,120.323 680.273,105.436 680.273,101.884" fill-opacity="0" stroke="#000000" stroke-width="1" stroke-miterlimit="10"/>
        <path d="M610.167,107.301" fill-opacity="0" stroke="#000000" stroke-width="1" stroke-miterlimit="10"/>
        <path d="M609.902,107.301" fill-opacity="0" stroke="#000000" stroke-width="1" stroke-miterlimit="10"/>
        <path d="M555.649,113.441 C565.274,117.762 577.142,120.324 590.004,120.324 C606.223,120.324 613.034,116.799 616.627,116.372" fill-opacity="0" stroke="#000000" stroke-width="1" stroke-miterlimit="10"/>
      </g>
    </g>
  </g>
  <g id="Layer_2" class="fragment" data-fragment-index="2">
    <g>
      <path d="M500.5,82.5 L218.54,245.689" fill-opacity="0" stroke="#F70101" stroke-width="4"/>
      <path d="M218.54,245.689 L218.905,239.932 L210.231,250.498 L223.714,248.241 z" fill="#F70101" fill-opacity="1" stroke="#F70101" stroke-width="4" stroke-opacity="1"/>
    </g>
  </g>
  <g id="Layer-3-one-time" class="fragment current-visible current-visible" data-fragment-index="3">
    <g>
      <path d="M182.625,274.875 L138.727,336.549" fill-opacity="0" stroke="#FF0000" stroke-width="4"/>
      <path d="M138.727,336.549 L136.672,331.159 L133.16,344.371 L144.493,336.726 z" fill="#FF0000" fill-opacity="1" stroke="#FF0000" stroke-width="4" stroke-opacity="1"/>
    </g>
    <g>
      <path d="M208.5,265.875 L306.743,419.232" fill-opacity="0" stroke="#FF0000" stroke-width="4"/>
      <path d="M306.743,419.232 L300.975,419.127 L311.921,427.316 L309.058,413.949 z" fill="#FF0000" fill-opacity="1" stroke="#FF0000" stroke-width="4" stroke-opacity="1"/>
    </g>
    <g>
      <g>
        <path d="M36.023,341.5 L135,341.5 L135,373 L36.023,373 L36.023,341.5 z" fill="#FF2A00"/>
        <path d="M36.523,342 L135.5,342 L135.5,373.5 L36.523,373.5 L36.523,342 z" fill-opacity="0" stroke="#000000" stroke-width="1.5"/>
      </g>
      <text transform="matrix(1, 0, 0, 1, 88.972, 358.375)">
        <tspan x="-30.85" y="4.375" font-family="Helvetica" font-size="15" fill="#000000">block, P1</tspan>
      </text>
    </g>
    <g>
      <g>
        <path d="M312.5,428.5 L411.477,428.5 L411.477,460 L312.5,460 L312.5,428.5 z" fill="#FF2A00"/>
        <path d="M313,429 L411.977,429 L411.977,460.5 L313,460.5 L313,429 z" fill-opacity="0" stroke="#000000" stroke-width="1.5"/>
      </g>
      <text transform="matrix(1, 0, 0, 1, 365.449, 445.375)">
        <tspan x="-30.85" y="4.375" font-family="Helvetica" font-size="15" fill="#000000">block, P1</tspan>
      </text>
    </g>
  </g>
  <g id="Layer_4" class="fragment" data-fragment-index="4">
    <g>
      <g>
        <path d="M312.5,460 L411.477,460 L411.477,491.5 L312.5,491.5 L312.5,460 z" fill="#FF2A00"/>
        <path d="M313,460.5 L411.977,460.5 L411.977,492 L313,492 L313,460.5 z" fill-opacity="0" stroke="#000000" stroke-width="1.5"/>
      </g>
      <text transform="matrix(1, 0, 0, 1, 365.449, 476.875)">
        <tspan x="-30.85" y="4.375" font-family="Helvetica" font-size="15" fill="#000000">block, P2</tspan>
      </text>
    </g>
    <g>
      <g>
        <path d="M578.646,388.5 L677.624,388.5 L677.624,420 L578.646,420 L578.646,388.5 z" fill="#FF2A00"/>
        <path d="M579.146,389 L678.124,389 L678.124,420.5 L579.146,420.5 L579.146,389 z" fill-opacity="0" stroke="#000000" stroke-width="1.5"/>
      </g>
      <text transform="matrix(1, 0, 0, 1, 631.596, 405.375)">
        <tspan x="-30.85" y="4.375" font-family="Helvetica" font-size="15" fill="#000000">block, P2</tspan>
      </text>
    </g>
    <g>
      <path d="M208.5,273.5 L302.162,454.201" fill-opacity="0" stroke="#FF0000" stroke-width="4"/>
      <path d="M302.162,454.201 L296.428,453.569 L306.58,462.724 L304.951,449.151 z" fill="#FF0000" fill-opacity="1" stroke="#FF0000" stroke-width="4" stroke-opacity="1"/>
    </g>
    <g>
      <path d="M208.5,273.5 L568.146,393.82" fill-opacity="0" stroke="#FF0000" stroke-width="4"/>
      <path d="M568.146,393.82 L563.588,397.356 L577.25,396.865 L566.634,388.252 z" fill="#FF0000" fill-opacity="1" stroke="#FF0000" stroke-width="4" stroke-opacity="1"/>
    </g>
    <g>
      <g>
        <path d="M36.023,341.5 L135,341.5 L135,373 L36.023,373 L36.023,341.5 z" fill="#FF2A00"/>
        <path d="M36.523,342 L135.5,342 L135.5,373.5 L36.523,373.5 L36.523,342 z" fill-opacity="0" stroke="#000000" stroke-width="1.5"/>
      </g>
      <text transform="matrix(1, 0, 0, 1, 88.972, 358.375)">
        <tspan x="-30.85" y="4.375" font-family="Helvetica" font-size="15" fill="#000000">block, P1</tspan>
      </text>
    </g>
    <g>
      <g>
        <path d="M312.5,428.5 L411.477,428.5 L411.477,460 L312.5,460 L312.5,428.5 z" fill="#FF2A00"/>
        <path d="M313,429 L411.977,429 L411.977,460.5 L313,460.5 L313,429 z" fill-opacity="0" stroke="#000000" stroke-width="1.5"/>
      </g>
      <text transform="matrix(1, 0, 0, 1, 365.449, 445.375)">
        <tspan x="-30.85" y="4.375" font-family="Helvetica" font-size="15" fill="#000000">block, P1</tspan>
      </text>
    </g>
  </g>
</svg>
