<?xml version="1.0" encoding="UTF-8"?>
<!DOCTYPE svg PUBLIC "-//W3C//DTD SVG 1.1//EN" "http://www.w3.org/Graphics/SVG/1.1/DTD/svg11.dtd">
<svg version="1.1" width="792" height="612">
  <g id="Layer_1" class="fragment" data-fragment-index="1">
    <g>
      <path d="M85.523,134.375 L327.023,134.375 L327.023,516.625 L85.523,516.625 L85.523,134.375 z" fill="#908C8C"/>
      <path d="M86.023,134.875 L327.523,134.875 L327.523,517.125 L86.023,517.125 L86.023,134.875 z" fill-opacity="0" stroke="#000000" stroke-width="1.5"/>
    </g>
    <g>
      <g>
        <path d="M91.762,148.375 L198.262,148.375 L198.262,196.375 L91.762,196.375 L91.762,148.375 z" fill="#F29F56"/>
        <path d="M92.262,148.875 L198.762,148.875 L198.762,196.875 L92.262,196.875 L92.262,148.875 z" fill-opacity="0" stroke="#000000" stroke-width="1.5"/>
      </g>
      <text transform="matrix(1, 0, 0, 1, 145.428, 172.125)">
        <tspan x="-34.148" y="7" font-family="Helvetica" font-size="21" fill="#000000">Worker</tspan>
      </text>
    </g>
    <g>
      <path d="M85.523,214.5 L281,214.5 L281,416 L85.523,416 L85.523,214.5 z" fill="#CA9C09"/>
      <path d="M86.023,215 L281.5,215 L281.5,416.5 L86.023,416.5 L86.023,215 z" fill-opacity="0" stroke="#000000" stroke-width="3"/>
    </g>
    <g>
      <g>
        <path d="M225.773,298.375 C219.352,298.375 214.148,293.002 214.148,286.375 C214.148,279.748 219.352,274.375 225.773,274.375 C232.193,274.375 237.398,279.748 237.398,286.375 C237.398,293.002 232.193,298.375 225.773,298.375 z" fill="#04A567"/>
        <path d="M226.273,298.875 C219.852,298.875 214.648,293.502 214.648,286.875 C214.648,280.248 219.852,274.875 226.273,274.875 C232.693,274.875 237.898,280.248 237.898,286.875 C237.898,293.502 232.693,298.875 226.273,298.875 z" fill-opacity="0" stroke="#029C1B" stroke-width="1.5"/>
      </g>
      <text transform="matrix(1, 0, 0, 1, 226.049, 284.625)">
        <tspan x="-5.081" y="5.5" font-family="Helvetica" font-size="15" fill="#FFFDFD">T</tspan>
      </text>
    </g>
    <g>
      <g>
        <path d="M225.398,274.375 C218.977,274.375 213.773,269.002 213.773,262.375 C213.773,255.748 218.977,250.375 225.398,250.375 C231.818,250.375 237.023,255.748 237.023,262.375 C237.023,269.002 231.818,274.375 225.398,274.375 z" fill="#04A567"/>
        <path d="M225.898,274.875 C219.477,274.875 214.273,269.502 214.273,262.875 C214.273,256.248 219.477,250.875 225.898,250.875 C232.318,250.875 237.523,256.248 237.523,262.875 C237.523,269.502 232.318,274.875 225.898,274.875 z" fill-opacity="0" stroke="#029C1B" stroke-width="1.5"/>
      </g>
      <text transform="matrix(1, 0, 0, 1, 225.674, 260.625)">
        <tspan x="-5.081" y="5.5" font-family="Helvetica" font-size="15" fill="#FFFDFD">T</tspan>
      </text>
    </g>
    <text transform="matrix(1, 0, 0, 1, 138.461, 229.5)">
      <tspan x="-36.017" y="6" font-family="Helvetica" font-size="18" fill="#000000">Executor</tspan>
    </text>
    <g>
      <g>
        <path d="M95.523,262 L194.5,262 L194.5,293.5 L95.523,293.5 L95.523,262 z" fill="#9DDDF4"/>
        <path d="M96.023,262.5 L195,262.5 L195,294 L96.023,294 L96.023,262.5 z" fill-opacity="0" stroke="#000000" stroke-width="1.5"/>
      </g>
      <text transform="matrix(1, 0, 0, 1, 148.472, 278.875)">
        <tspan x="-32.501" y="4.375" font-family="Helvetica" font-size="15" fill="#000000">RDD (P1)</tspan>
      </text>
    </g>
    <g>
      <g>
        <path d="M256.75,301.625 C250.329,301.625 245.125,296.252 245.125,289.625 C245.125,282.998 250.329,277.625 256.75,277.625 C263.17,277.625 268.375,282.998 268.375,289.625 C268.375,296.252 263.17,301.625 256.75,301.625 z" fill="#04A567"/>
        <path d="M257.25,302.125 C250.829,302.125 245.625,296.752 245.625,290.125 C245.625,283.498 250.829,278.125 257.25,278.125 C263.67,278.125 268.875,283.498 268.875,290.125 C268.875,296.752 263.67,302.125 257.25,302.125 z" fill-opacity="0" stroke="#029C1B" stroke-width="1.5"/>
      </g>
      <text transform="matrix(1, 0, 0, 1, 257.026, 287.875)">
        <tspan x="-5.081" y="5.5" font-family="Helvetica" font-size="15" fill="#FFFDFD">T</tspan>
      </text>
    </g>
    <g>
      <g>
        <path d="M256.75,325.625 C250.329,325.625 245.125,320.252 245.125,313.625 C245.125,306.998 250.329,301.625 256.75,301.625 C263.17,301.625 268.375,306.998 268.375,313.625 C268.375,320.252 263.17,325.625 256.75,325.625 z" fill="#04A567"/>
        <path d="M257.25,326.125 C250.829,326.125 245.625,320.752 245.625,314.125 C245.625,307.498 250.829,302.125 257.25,302.125 C263.67,302.125 268.875,307.498 268.875,314.125 C268.875,320.752 263.67,326.125 257.25,326.125 z" fill-opacity="0" stroke="#029C1B" stroke-width="1.5"/>
      </g>
      <text transform="matrix(1, 0, 0, 1, 257.026, 311.875)">
        <tspan x="-5.081" y="5.5" font-family="Helvetica" font-size="15" fill="#FFFDFD">T</tspan>
      </text>
    </g>
    <g>
      <g>
        <path d="M225.773,325.625 C219.352,325.625 214.148,320.252 214.148,313.625 C214.148,306.998 219.352,301.625 225.773,301.625 C232.193,301.625 237.398,306.998 237.398,313.625 C237.398,320.252 232.193,325.625 225.773,325.625 z" fill="#04A567"/>
        <path d="M226.273,326.125 C219.852,326.125 214.648,320.752 214.648,314.125 C214.648,307.498 219.852,302.125 226.273,302.125 C232.693,302.125 237.898,307.498 237.898,314.125 C237.898,320.752 232.693,326.125 226.273,326.125 z" fill-opacity="0" stroke="#029C1B" stroke-width="1.5"/>
      </g>
      <text transform="matrix(1, 0, 0, 1, 226.049, 311.875)">
        <tspan x="-5.081" y="5.5" font-family="Helvetica" font-size="15" fill="#FFFDFD">T</tspan>
      </text>
    </g>
    <g>
      <g>
        <path d="M256.75,274.375 C250.329,274.375 245.125,269.002 245.125,262.375 C245.125,255.748 250.329,250.375 256.75,250.375 C263.17,250.375 268.375,255.748 268.375,262.375 C268.375,269.002 263.17,274.375 256.75,274.375 z" fill="#FF2A00"/>
        <path d="M257.25,274.875 C250.829,274.875 245.625,269.502 245.625,262.875 C245.625,256.248 250.829,250.875 257.25,250.875 C263.67,250.875 268.875,256.248 268.875,262.875 C268.875,269.502 263.67,274.875 257.25,274.875 z" fill-opacity="0" stroke="#590900" stroke-width="1.5"/>
      </g>
      <text transform="matrix(1, 0, 0, 1, 257.361, 260.625)">
        <tspan x="-5.416" y="5.5" font-family="Helvetica" font-size="15" fill="#FFFDFD">R</tspan>
      </text>
    </g>
    <g>
      <g>
        <path d="M95.523,301.625 L194.5,301.625 L194.5,333.125 L95.523,333.125 L95.523,301.625 z" fill="#9DDDF4"/>
        <path d="M96.023,302.125 L195,302.125 L195,333.625 L96.023,333.625 L96.023,302.125 z" fill-opacity="0" stroke="#000000" stroke-width="1.5"/>
      </g>
      <text transform="matrix(1, 0, 0, 1, 148.472, 318.5)">
        <tspan x="-32.501" y="4.375" font-family="Helvetica" font-size="15" fill="#000000">RDD (P2)</tspan>
      </text>
    </g>
    <g>
      <g>
        <path d="M95.523,345.5 L194.5,345.5 L194.5,377 L95.523,377 L95.523,345.5 z" fill="#FF2A00"/>
        <path d="M96.023,346 L195,346 L195,377.5 L96.023,377.5 L96.023,346 z" fill-opacity="0" stroke="#000000" stroke-width="1.5"/>
      </g>
      <text transform="matrix(1, 0, 0, 1, 148.472, 362.375)">
        <tspan x="-30.85" y="4.375" font-family="Helvetica" font-size="15" fill="#000000">block, P5</tspan>
      </text>
    </g>
    <g>
      <g>
        <path d="M206.523,435.125 L317,435.125 L317,508 L206.523,508 L206.523,435.125 z" fill="#CA9C09"/>
        <path d="M207.023,435.625 L317.5,435.625 L317.5,508.5 L207.023,508.5 L207.023,435.625 z" fill-opacity="0" stroke="#000000" stroke-width="3"/>
      </g>
      <g>
        <path d="M227.523,470.221 L296,470.221 L296,504.136 L227.523,504.136 L227.523,470.221 z" fill="#000000"/>
        <g>
          <path d="M228.023,470.721 L296.5,470.721 L296.5,504.636 L228.023,504.636 L228.023,470.721 z" fill="#000000"/>
          <path d="M228.023,470.721 L296.5,470.721 L296.5,504.636 L228.023,504.636 L228.023,470.721 z" fill-opacity="0" stroke="#000000" stroke-width="3"/>
        </g>
      </g>
      <text transform="matrix(1, 0, 0, 1, 261.762, 456.268)">
        <tspan x="-20.097" y="5.199" font-family="HelveticaNeue-Bold" font-size="14" fill="#000000">Driver</tspan>
      </text>
    </g>
    <g>
      <path d="M440.5,217.375 L682,217.375 L682,516.625 L440.5,516.625 L440.5,217.375 z" fill="#908C8C"/>
      <path d="M441,217.875 L682.5,217.875 L682.5,517.125 L441,517.125 L441,217.875 z" fill-opacity="0" stroke="#000000" stroke-width="1.5"/>
    </g>
    <g>
      <g>
        <path d="M446.738,231.375 L553.238,231.375 L553.238,279.375 L446.738,279.375 L446.738,231.375 z" fill="#F29F56"/>
        <path d="M447.238,231.875 L553.738,231.875 L553.738,279.875 L447.238,279.875 L447.238,231.875 z" fill-opacity="0" stroke="#000000" stroke-width="1.5"/>
      </g>
      <text transform="matrix(1, 0, 0, 1, 500.405, 255.125)">
        <tspan x="-34.148" y="7" font-family="Helvetica" font-size="21" fill="#000000">Worker</tspan>
      </text>
    </g>
    <g>
      <path d="M440.5,297.5 L635.977,297.5 L635.977,499 L440.5,499 L440.5,297.5 z" fill="#CA9C09"/>
      <path d="M441,298 L636.477,298 L636.477,499.5 L441,499.5 L441,298 z" fill-opacity="0" stroke="#000000" stroke-width="3"/>
    </g>
    <g>
      <g>
        <path d="M580.75,381.375 C574.329,381.375 569.125,376.002 569.125,369.375 C569.125,362.748 574.329,357.375 580.75,357.375 C587.17,357.375 592.375,362.748 592.375,369.375 C592.375,376.002 587.17,381.375 580.75,381.375 z" fill="#04A567"/>
        <path d="M581.25,381.875 C574.829,381.875 569.625,376.502 569.625,369.875 C569.625,363.248 574.829,357.875 581.25,357.875 C587.67,357.875 592.875,363.248 592.875,369.875 C592.875,376.502 587.67,381.875 581.25,381.875 z" fill-opacity="0" stroke="#029C1B" stroke-width="1.5"/>
      </g>
      <text transform="matrix(1, 0, 0, 1, 581.026, 367.625)">
        <tspan x="-5.081" y="5.5" font-family="Helvetica" font-size="15" fill="#FFFDFD">T</tspan>
      </text>
    </g>
    <g>
      <g>
        <path d="M580.375,357.375 C573.954,357.375 568.75,352.002 568.75,345.375 C568.75,338.748 573.954,333.375 580.375,333.375 C586.795,333.375 592,338.748 592,345.375 C592,352.002 586.795,357.375 580.375,357.375 z" fill="#04A567"/>
        <path d="M580.875,357.875 C574.454,357.875 569.25,352.502 569.25,345.875 C569.25,339.248 574.454,333.875 580.875,333.875 C587.295,333.875 592.5,339.248 592.5,345.875 C592.5,352.502 587.295,357.875 580.875,357.875 z" fill-opacity="0" stroke="#029C1B" stroke-width="1.5"/>
      </g>
      <text transform="matrix(1, 0, 0, 1, 580.651, 343.625)">
        <tspan x="-5.081" y="5.5" font-family="Helvetica" font-size="15" fill="#FFFDFD">T</tspan>
      </text>
    </g>
    <text transform="matrix(1, 0, 0, 1, 493.437, 312.5)">
      <tspan x="-36.017" y="6" font-family="Helvetica" font-size="18" fill="#000000">Executor</tspan>
    </text>
    <g>
      <g>
        <path d="M450.5,345 L549.477,345 L549.477,376.5 L450.5,376.5 L450.5,345 z" fill="#9DDDF4"/>
        <path d="M451,345.5 L549.977,345.5 L549.977,377 L451,377 L451,345.5 z" fill-opacity="0" stroke="#000000" stroke-width="1.5"/>
      </g>
      <text transform="matrix(1, 0, 0, 1, 503.449, 361.875)">
        <tspan x="-32.501" y="4.375" font-family="Helvetica" font-size="15" fill="#000000">RDD (P1)</tspan>
      </text>
    </g>
    <g>
      <g>
        <path d="M611.727,384.625 C605.306,384.625 600.102,379.252 600.102,372.625 C600.102,365.998 605.306,360.625 611.727,360.625 C618.147,360.625 623.352,365.998 623.352,372.625 C623.352,379.252 618.147,384.625 611.727,384.625 z" fill="#04A567"/>
        <path d="M612.227,385.125 C605.806,385.125 600.602,379.752 600.602,373.125 C600.602,366.498 605.806,361.125 612.227,361.125 C618.647,361.125 623.852,366.498 623.852,373.125 C623.852,379.752 618.647,385.125 612.227,385.125 z" fill-opacity="0" stroke="#029C1B" stroke-width="1.5"/>
      </g>
      <text transform="matrix(1, 0, 0, 1, 612.003, 370.875)">
        <tspan x="-5.081" y="5.5" font-family="Helvetica" font-size="15" fill="#FFFDFD">T</tspan>
      </text>
    </g>
    <g>
      <g>
        <path d="M611.727,408.625 C605.306,408.625 600.102,403.252 600.102,396.625 C600.102,389.998 605.306,384.625 611.727,384.625 C618.147,384.625 623.352,389.998 623.352,396.625 C623.352,403.252 618.147,408.625 611.727,408.625 z" fill="#04A567"/>
        <path d="M612.227,409.125 C605.806,409.125 600.602,403.752 600.602,397.125 C600.602,390.498 605.806,385.125 612.227,385.125 C618.647,385.125 623.852,390.498 623.852,397.125 C623.852,403.752 618.647,409.125 612.227,409.125 z" fill-opacity="0" stroke="#029C1B" stroke-width="1.5"/>
      </g>
      <text transform="matrix(1, 0, 0, 1, 612.003, 394.875)">
        <tspan x="-5.081" y="5.5" font-family="Helvetica" font-size="15" fill="#FFFDFD">T</tspan>
      </text>
    </g>
    <g>
      <g>
        <path d="M580.75,408.625 C574.329,408.625 569.125,403.252 569.125,396.625 C569.125,389.998 574.329,384.625 580.75,384.625 C587.17,384.625 592.375,389.998 592.375,396.625 C592.375,403.252 587.17,408.625 580.75,408.625 z" fill="#04A567"/>
        <path d="M581.25,409.125 C574.829,409.125 569.625,403.752 569.625,397.125 C569.625,390.498 574.829,385.125 581.25,385.125 C587.67,385.125 592.875,390.498 592.875,397.125 C592.875,403.752 587.67,409.125 581.25,409.125 z" fill-opacity="0" stroke="#029C1B" stroke-width="1.5"/>
      </g>
      <text transform="matrix(1, 0, 0, 1, 581.026, 394.875)">
        <tspan x="-5.081" y="5.5" font-family="Helvetica" font-size="15" fill="#FFFDFD">T</tspan>
      </text>
    </g>
    <g>
      <g>
        <path d="M450.5,384.625 L549.477,384.625 L549.477,416.125 L450.5,416.125 L450.5,384.625 z" fill="#9DDDF4"/>
        <path d="M451,385.125 L549.977,385.125 L549.977,416.625 L451,416.625 L451,385.125 z" fill-opacity="0" stroke="#000000" stroke-width="1.5"/>
      </g>
      <text transform="matrix(1, 0, 0, 1, 503.449, 401.5)">
        <tspan x="-32.501" y="4.375" font-family="Helvetica" font-size="15" fill="#000000">RDD (P2)</tspan>
      </text>
    </g>
    <g>
      <g>
        <path d="M450.5,428.5 L549.477,428.5 L549.477,460 L450.5,460 L450.5,428.5 z" fill="#FF2A00"/>
        <path d="M451,429 L549.977,429 L549.977,460.5 L451,460.5 L451,429 z" fill-opacity="0" stroke="#000000" stroke-width="1.5"/>
      </g>
      <text transform="matrix(1, 0, 0, 1, 503.449, 445.375)">
        <tspan x="-30.85" y="4.375" font-family="Helvetica" font-size="15" fill="#000000">block, P5</tspan>
      </text>
    </g>
    <g>
      <g>
        <path d="M611.727,358.5 C605.306,358.5 600.102,353.127 600.102,346.5 C600.102,339.873 605.306,334.5 611.727,334.5 C618.147,334.5 623.352,339.873 623.352,346.5 C623.352,353.127 618.147,358.5 611.727,358.5 z" fill="#04A567"/>
        <path d="M612.227,359 C605.806,359 600.602,353.627 600.602,347 C600.602,340.373 605.806,335 612.227,335 C618.647,335 623.852,340.373 623.852,347 C623.852,353.627 618.647,359 612.227,359 z" fill-opacity="0" stroke="#029C1B" stroke-width="1.5"/>
      </g>
      <text transform="matrix(1, 0, 0, 1, 612.003, 344.75)">
        <tspan x="-5.081" y="5.5" font-family="Helvetica" font-size="15" fill="#FFFDFD">T</tspan>
      </text>
    </g>
    <path d="M512.995,38.774 C509.81,40.759 508.634,43.384 509.049,47.547 C509.464,51.069 511.956,54.27 514.933,54.911 C516.318,55.231 516.525,55.743 516.525,58.048 C516.525,60.61 516.387,60.866 514.241,61.506 C511.818,62.275 508.288,65.284 506.834,67.974 C505.726,69.959 505.726,75.594 506.834,77.579 C508.288,80.269 511.818,83.278 514.241,84.047 C516.387,84.687 516.525,84.943 516.525,87.504 C516.525,89.81 516.318,90.322 514.933,90.642 C514.102,90.834 512.51,91.859 511.403,92.883 C508.772,95.445 508.08,100.44 509.949,103.641 C513.826,110.301 524.348,109.853 527.67,102.809 C529.885,98.198 528.155,93.588 523.309,91.026 C520.956,89.81 520.679,89.361 520.679,87.184 C520.679,85.071 520.956,84.687 522.755,84.047 C523.932,83.726 525.87,82.766 527.047,81.997 C529.055,80.653 529.262,80.589 531.339,81.677 C533.277,82.638 533.485,83.022 533.485,85.84 C533.485,89.233 534.8,91.475 538.192,93.844 C540.823,95.637 546.015,95.573 548.922,93.652 C554.945,89.682 554.599,80.845 548.299,77.835 C545.392,76.49 539.3,76.875 537.292,78.54 C535.908,79.692 535.77,79.692 533.624,78.668 C531.408,77.515 531.339,77.451 531.339,72.776 C531.339,68.102 531.408,68.038 533.624,66.885 C535.77,65.861 535.908,65.861 537.292,67.013 C539.3,68.678 545.392,69.062 548.299,67.718 C551.276,66.245 553.214,63.171 553.214,59.777 C553.214,54.27 549.199,50.428 543.384,50.428 C537.708,50.428 533.485,54.398 533.485,59.713 C533.485,62.531 533.277,62.915 531.339,63.876 C529.262,64.964 529.055,64.9 527.047,63.555 C525.87,62.787 523.932,61.827 522.755,61.506 C520.956,60.866 520.679,60.482 520.679,58.305 C520.679,56.063 520.956,55.679 523.309,54.591 C528.016,52.349 529.885,47.355 527.67,42.744 C525.109,37.365 518.187,35.508 512.995,38.774 z M521.648,43.064 C525.109,45.626 523.309,50.684 518.879,50.684 C514.172,50.684 512.164,46.33 515.487,43.32 C517.564,41.399 519.225,41.335 521.648,43.064 z M546.915,56.832 C548.784,59.073 548.714,60.61 546.638,62.531 C543.523,65.477 538.677,63.748 538.677,59.649 C538.677,55.487 544.146,53.63 546.915,56.832 z M523.586,68.422 C528.016,72.328 524.763,79.18 518.533,79.18 C512.926,79.18 509.741,73.033 513.133,68.998 C516.041,65.605 520.194,65.412 523.586,68.422 z M546.638,83.022 C548.784,84.943 548.853,86.992 546.845,88.913 C543.869,91.859 538.677,89.938 538.677,85.904 C538.677,81.805 543.523,80.076 546.638,83.022 z M522.34,96.277 C524.001,98.454 523.725,100.952 521.648,102.489 C520.609,103.257 519.225,103.833 518.464,103.833 C516.594,103.833 513.756,100.952 513.756,99.031 C513.756,95.253 520.056,93.268 522.34,96.277 z" fill="#000000"/>
  </g>
  <g id="Layer_2" class="fragment" data-fragment-index="2">
    <g>
      <path d="M507.334,78.079 L278.268,244.068" fill-opacity="0" stroke="#F70101" stroke-width="4"/>
      <path d="M278.268,244.068 L278.043,238.304 L270.495,249.701 L283.676,246.078 z" fill="#F70101" fill-opacity="1" stroke="#F70101" stroke-width="4" stroke-opacity="1"/>
    </g>
  </g>
  <g id="Layer_3" class="fragment" data-fragment-index="3">
    <g>
      <path d="M245.625,274.875 L201.727,336.549" fill-opacity="0" stroke="#FF0000" stroke-width="4"/>
      <path d="M201.727,336.549 L199.672,331.159 L196.16,344.371 L207.493,336.726 z" fill="#FF0000" fill-opacity="1" stroke="#FF0000" stroke-width="4" stroke-opacity="1"/>
    </g>
    <g>
      <path d="M268.875,274.875 L438.622,427.859" fill-opacity="0" stroke="#FF0000" stroke-width="4"/>
      <path d="M438.622,427.859 L433.031,429.282 L445.753,434.286 L439.458,422.151 z" fill="#FF0000" fill-opacity="1" stroke="#FF0000" stroke-width="4" stroke-opacity="1"/>
    </g>
  </g>
</svg>
