<?xml version="1.0" encoding="UTF-8"?>
<!DOCTYPE svg PUBLIC "-//W3C//DTD SVG 1.1//EN" "http://www.w3.org/Graphics/SVG/1.1/DTD/svg11.dtd">
<svg version="1.1" width="599.976" height="432">
  <g id="Layer_1" class="">
    <g>
      <path d="M78.488,132 L474.488,131.05" fill-opacity="0" stroke="#000000" stroke-width="6" stroke-dasharray="36,30"/>
      <path d="M474.502,137.05 L490.488,131.012 L474.474,125.05 z" fill="#000000" fill-opacity="1" stroke="#000000" stroke-width="6" stroke-opacity="1"/>
    </g>
    <g>
      <path d="M185.306,70.5 L407.68,70.5 C415.604,70.5 422.027,79.071 422.027,89.643 L422.027,185.357 C422.027,195.929 415.604,204.5 407.68,204.5 L185.306,204.5 C177.382,204.5 170.959,195.929 170.959,185.357 L170.959,89.643 C170.959,79.071 177.382,70.5 185.306,70.5 z" fill="#F5F5F5"/>
      <path d="M185.306,70.5 L407.68,70.5 C415.604,70.5 422.027,79.071 422.027,89.643 L422.027,185.357 C422.027,195.929 415.604,204.5 407.68,204.5 L185.306,204.5 C177.382,204.5 170.959,195.929 170.959,185.357 L170.959,89.643 C170.959,79.071 177.382,70.5 185.306,70.5 z" fill-opacity="0" stroke="#CF7407" stroke-width="2"/>
    </g>
    <g>
      <path d="M300.488,219.5 L300.488,259.5" fill-opacity="0" stroke="#CF7407" stroke-width="6"/>
      <path d="M294.488,259.5 L300.488,275.5 L306.488,259.5 z" fill="#CF7407" fill-opacity="1" stroke="#CF7407" stroke-width="6" stroke-opacity="1"/>
    </g>
    <g>
      <g>
        <path d="M260.583,59.5 C246.776,59.5 235.583,48.083 235.583,34 C235.583,19.917 246.776,8.5 260.583,8.5 C274.391,8.5 285.583,19.917 285.583,34 C285.583,48.083 274.391,59.5 260.583,59.5 z" fill="#F5F5F5"/>
        <path d="M260.583,59.5 C246.776,59.5 235.583,48.083 235.583,34 C235.583,19.917 246.776,8.5 260.583,8.5 C274.391,8.5 285.583,19.917 285.583,34 C285.583,48.083 274.391,59.5 260.583,59.5 z" fill-opacity="0" stroke="#000000" stroke-width="2"/>
      </g>
      <g>
        <path d="M261.083,35.5 C260.945,35.5 260.833,30.127 260.833,23.5 C260.833,16.873 260.945,11.5 261.083,11.5 C261.222,11.5 261.333,16.873 261.333,23.5 C261.333,30.127 261.222,35.5 261.083,35.5 z" fill="#FFFFFF"/>
        <path d="M261.083,35.5 C260.945,35.5 260.833,30.127 260.833,23.5 C260.833,16.873 260.945,11.5 261.083,11.5 C261.222,11.5 261.333,16.873 261.333,23.5 C261.333,30.127 261.222,35.5 261.083,35.5 z" fill-opacity="0" stroke="#000000" stroke-width="2"/>
      </g>
      <path d="M261.083,35.5 L272.083,15" fill-opacity="0" stroke="#000000" stroke-width="2"/>
    </g>
    <text transform="matrix(1, 0, 0, 1, 316.986, 29)">
      <tspan x="-20.907" y="6.5" font-family="HelveticaNeue-Bold" font-size="18" fill="#000000">T = 5</tspan>
    </text>
    <g>
      <g>
        <path d="M421.926,95.5 C402.837,95.5 387.363,87.441 387.363,77.5 C387.363,67.559 402.837,59.5 421.926,59.5 C441.014,59.5 456.488,67.559 456.488,77.5 C456.488,87.441 441.014,95.5 421.926,95.5 z" fill="#FDF401"/>
        <path d="M421.926,95.5 C402.837,95.5 387.363,87.441 387.363,77.5 C387.363,67.559 402.837,59.5 421.926,59.5 C441.014,59.5 456.488,67.559 456.488,77.5 C456.488,87.441 441.014,95.5 421.926,95.5 z" fill-opacity="0" stroke="#7F7A02" stroke-width="2"/>
      </g>
      <text transform="matrix(1, 0, 0, 1, 421.426, 77)">
        <tspan x="-27.615" y="7.5" font-family="HelveticaNeue" font-size="21" fill="#000000">Batch</tspan>
      </text>
    </g>
    <text transform="matrix(1, 0, 0, 1, 106.46, 102.5)">
      <tspan x="-38.46" y="8.5" font-family="HelveticaNeue" font-size="24" fill="#000000">Stream</tspan>
    </text>
    <g>
      <g>
        <path d="M194.329,290.5 L416.704,290.5 C424.627,290.5 431.051,299.071 431.051,309.643 L431.051,405.357 C431.051,415.929 424.627,424.5 416.704,424.5 L194.329,424.5 C186.406,424.5 179.983,415.929 179.983,405.357 L179.983,309.643 C179.983,299.071 186.406,290.5 194.329,290.5 z" fill="#F5F5F5"/>
        <path d="M194.329,290.5 L416.704,290.5 C424.627,290.5 431.051,299.071 431.051,309.643 L431.051,405.357 C431.051,415.929 424.627,424.5 416.704,424.5 L194.329,424.5 C186.406,424.5 179.983,415.929 179.983,405.357 L179.983,309.643 C179.983,299.071 186.406,290.5 194.329,290.5 z" fill-opacity="0" stroke="#2EC305" stroke-width="2"/>
      </g>
      <g>
        <path d="M192.741,329.5 L260.491,329.5 L260.491,388.5 L192.741,388.5 L192.741,329.5 z" fill="#F5F5F5"/>
        <path d="M192.741,329.5 L260.491,329.5 L260.491,388.5 L192.741,388.5 L192.741,329.5 z" fill-opacity="0" stroke="#000000" stroke-width="2"/>
      </g>
      <text transform="matrix(1, 0, 0, 1, 226.116, 364)">
        <tspan x="-28.378" y="-3.5" font-family="HelveticaNeue-Bold" font-size="14" fill="#000000">Partition </tspan>
        <tspan x="-3.892" y="13.5" font-family="HelveticaNeue-Bold" font-size="14" fill="#000000">1</tspan>
      </text>
      <g>
        <path d="M350.941,329.5 L418.691,329.5 L418.691,388.5 L350.941,388.5 L350.941,329.5 z" fill="#F5F5F5"/>
        <path d="M350.941,329.5 L418.691,329.5 L418.691,388.5 L350.941,388.5 L350.941,329.5 z" fill-opacity="0" stroke="#000000" stroke-width="2"/>
      </g>
      <g>
        <path d="M271.642,329.5 L339.392,329.5 L339.392,388.5 L271.642,388.5 L271.642,329.5 z" fill="#F5F5F5"/>
        <path d="M271.642,329.5 L339.392,329.5 L339.392,388.5 L271.642,388.5 L271.642,329.5 z" fill-opacity="0" stroke="#000000" stroke-width="2"/>
      </g>
      <text transform="matrix(1, 0, 0, 1, 384.316, 364)">
        <tspan x="-28.378" y="-3.5" font-family="HelveticaNeue-Bold" font-size="14" fill="#000000">Partition </tspan>
        <tspan x="-3.892" y="13.5" font-family="HelveticaNeue-Bold" font-size="14" fill="#000000">3</tspan>
      </text>
      <text transform="matrix(1, 0, 0, 1, 305.017, 364)">
        <tspan x="-28.378" y="-3.5" font-family="HelveticaNeue-Bold" font-size="14" fill="#000000">Partition </tspan>
        <tspan x="-3.892" y="13.5" font-family="HelveticaNeue-Bold" font-size="14" fill="#000000">2</tspan>
      </text>
    </g>
    <g>
      <path d="M188.75,112 L256.5,112 L256.5,171 L188.75,171 L188.75,112 z" fill="#F5F5F5"/>
      <path d="M188.75,112 L256.5,112 L256.5,171 L188.75,171 L188.75,112 z" fill-opacity="0" stroke="#000000" stroke-width="2"/>
    </g>
    <text transform="matrix(1, 0, 0, 1, 222.125, 141.5)">
      <tspan x="-24.885" y="3" font-family="HelveticaNeue-Bold" font-size="14" fill="#000000">Block 1</tspan>
    </text>
    <g>
      <path d="M266.613,112 L334.363,112 L334.363,171 L266.613,171 L266.613,112 z" fill="#F5F5F5"/>
      <path d="M266.613,112 L334.363,112 L334.363,171 L266.613,171 L266.613,112 z" fill-opacity="0" stroke="#000000" stroke-width="2"/>
    </g>
    <text transform="matrix(1, 0, 0, 1, 299.988, 141.5)">
      <tspan x="-24.885" y="3" font-family="HelveticaNeue-Bold" font-size="14" fill="#000000">Block 2</tspan>
    </text>
    <g>
      <path d="M343.75,112 L411.5,112 L411.5,171 L343.75,171 L343.75,112 z" fill="#F5F5F5"/>
      <path d="M343.75,112 L411.5,112 L411.5,171 L343.75,171 L343.75,112 z" fill-opacity="0" stroke="#000000" stroke-width="2"/>
    </g>
    <text transform="matrix(1, 0, 0, 1, 377.125, 141.5)">
      <tspan x="-24.885" y="3" font-family="HelveticaNeue-Bold" font-size="14" fill="#000000">Block 3</tspan>
    </text>
    <g>
      <g>
        <path d="M415.051,311 C395.962,311 380.488,302.941 380.488,293 C380.488,283.059 395.962,275 415.051,275 C434.139,275 449.613,283.059 449.613,293 C449.613,302.941 434.139,311 415.051,311 z" fill="#FDF401"/>
        <path d="M415.051,311 C395.962,311 380.488,302.941 380.488,293 C380.488,283.059 395.962,275 415.051,275 C434.139,275 449.613,283.059 449.613,293 C449.613,302.941 434.139,311 415.051,311 z" fill-opacity="0" stroke="#7F7A02" stroke-width="2"/>
      </g>
      <text transform="matrix(1, 0, 0, 1, 414.55, 292.5)">
        <tspan x="-21.976" y="7.5" font-family="HelveticaNeue" font-size="21" fill="#000000">RDD</tspan>
      </text>
    </g>
  </g>
</svg>
