<?xml version="1.0" encoding="UTF-8"?>
<!DOCTYPE svg PUBLIC "-//W3C//DTD SVG 1.1//EN" "http://www.w3.org/Graphics/SVG/1.1/DTD/svg11.dtd">
<svg version="1.1" width="792" height="612">
  <g id="Layer_1">
    <g>
      <g>
        <path d="M15.5,134.375 L257,134.375 L257,516.625 L15.5,516.625 L15.5,134.375 z" fill="#908C8C"/>
        <path d="M16,134.875 L257.5,134.875 L257.5,517.125 L16,517.125 L16,134.875 z" fill-opacity="0" stroke="#000000" stroke-width="1.5" stroke-linejoin="bevel"/>
      </g>
      <g>
        <g>
          <path d="M25.211,150.375 L131.711,150.375 L131.711,198.375 L25.211,198.375 L25.211,150.375 z" fill="#F29F56"/>
          <path d="M25.711,150.875 L132.211,150.875 L132.211,198.875 L25.711,198.875 L25.711,150.875 z" fill-opacity="0" stroke="#000000" stroke-width="1.5"/>
        </g>
        <text transform="matrix(1, 0, 0, 1, 78.877, 174.125)">
          <tspan x="-34.148" y="7" font-family="Helvetica" font-size="21" fill="#000000">Worker</tspan>
        </text>
      </g>
      <g>
        <path d="M25.523,214.5 L221,214.5 L221,416 L25.523,416 L25.523,214.5 z" fill="#CA9C09"/>
        <path d="M26.023,215 L221.5,215 L221.5,416.5 L26.023,416.5 L26.023,215 z" fill-opacity="0" stroke="#000000" stroke-width="3"/>
      </g>
      <text transform="matrix(1, 0, 0, 1, 78.461, 229.5)">
        <tspan x="-36.017" y="6" font-family="Helvetica" font-size="18" fill="#000000">Executor</tspan>
      </text>
      <g>
        <g>
          <path d="M35.523,262 L134.5,262 L134.5,293.5 L35.523,293.5 L35.523,262 z" fill="#9DDDF4"/>
          <g>
            <path d="M36.023,262.5 L135,262.5 L135,294 L36.023,294 L36.023,262.5 z" fill="#9DDDF4"/>
            <path d="M36.023,262.5 L135,262.5 L135,294 L36.023,294 L36.023,262.5 z" fill-opacity="0" stroke="#000000" stroke-width="1.5"/>
          </g>
        </g>
        <text transform="matrix(1, 0, 0, 1, 88.472, 278.875)">
          <tspan x="-38.756" y="4.375" font-family="Helvetica" font-size="15" fill="#000000">RDD 1 (P1)</tspan>
        </text>
      </g>
      <g>
        <g>
          <g>
            <path d="M165.773,304.375 C159.352,304.375 154.148,299.002 154.148,292.375 C154.148,285.748 159.352,280.375 165.773,280.375 C172.193,280.375 177.398,285.748 177.398,292.375 C177.398,299.002 172.193,304.375 165.773,304.375 z" fill="#04A567"/>
            <path d="M166.273,304.875 C159.852,304.875 154.648,299.502 154.648,292.875 C154.648,286.248 159.852,280.875 166.273,280.875 C172.693,280.875 177.898,286.248 177.898,292.875 C177.898,299.502 172.693,304.875 166.273,304.875 z" fill-opacity="0" stroke="#029C1B" stroke-width="1.5"/>
          </g>
          <text transform="matrix(1, 0, 0, 1, 165.97, 290.625)">
            <tspan x="-5.002" y="5.5" font-family="Helvetica" font-size="15" fill="#FFFDFD">S</tspan>
          </text>
        </g>
        <g>
          <g>
            <path d="M166.398,275.875 C159.977,275.875 154.773,270.502 154.773,263.875 C154.773,257.248 159.977,251.875 166.398,251.875 C172.818,251.875 178.023,257.248 178.023,263.875 C178.023,270.502 172.818,275.875 166.398,275.875 z" fill="#04A567"/>
            <path d="M166.898,276.375 C160.477,276.375 155.273,271.002 155.273,264.375 C155.273,257.748 160.477,252.375 166.898,252.375 C173.318,252.375 178.523,257.748 178.523,264.375 C178.523,271.002 173.318,276.375 166.898,276.375 z" fill-opacity="0" stroke="#029C1B" stroke-width="1.5"/>
          </g>
          <text transform="matrix(1, 0, 0, 1, 166.174, 262.125)">
            <tspan x="-4.581" y="5.5" font-family="Helvetica" font-size="15" fill="#FFFDFD">T</tspan>
          </text>
        </g>
        <g>
          <g>
            <path d="M195.75,304.625 C189.329,304.625 184.125,299.252 184.125,292.625 C184.125,285.998 189.329,280.625 195.75,280.625 C202.17,280.625 207.375,285.998 207.375,292.625 C207.375,299.252 202.17,304.625 195.75,304.625 z" fill="#04A567"/>
            <path d="M196.25,305.125 C189.829,305.125 184.625,299.752 184.625,293.125 C184.625,286.498 189.829,281.125 196.25,281.125 C202.67,281.125 207.875,286.498 207.875,293.125 C207.875,299.752 202.67,305.125 196.25,305.125 z" fill-opacity="0" stroke="#029C1B" stroke-width="1.5"/>
          </g>
          <text transform="matrix(1, 0, 0, 1, 195.947, 290.875)">
            <tspan x="-5.002" y="5.5" font-family="Helvetica" font-size="15" fill="#FFFDFD">S</tspan>
          </text>
        </g>
        <g>
          <g>
            <path d="M196.75,333.625 C190.329,333.625 185.125,328.252 185.125,321.625 C185.125,314.998 190.329,309.625 196.75,309.625 C203.17,309.625 208.375,314.998 208.375,321.625 C208.375,328.252 203.17,333.625 196.75,333.625 z" fill="#04A567"/>
            <path d="M197.25,334.125 C190.829,334.125 185.625,328.752 185.625,322.125 C185.625,315.498 190.829,310.125 197.25,310.125 C203.67,310.125 208.875,315.498 208.875,322.125 C208.875,328.752 203.67,334.125 197.25,334.125 z" fill-opacity="0" stroke="#029C1B" stroke-width="1.5"/>
          </g>
          <text transform="matrix(1, 0, 0, 1, 196.947, 319.875)">
            <tspan x="-5.002" y="5.5" font-family="Helvetica" font-size="15" fill="#FFFDFD">S</tspan>
          </text>
        </g>
        <g>
          <g>
            <path d="M166.773,333.625 C160.352,333.625 155.148,328.252 155.148,321.625 C155.148,314.998 160.352,309.625 166.773,309.625 C173.193,309.625 178.398,314.998 178.398,321.625 C178.398,328.252 173.193,333.625 166.773,333.625 z" fill="#04A567"/>
            <path d="M167.273,334.125 C160.852,334.125 155.648,328.752 155.648,322.125 C155.648,315.498 160.852,310.125 167.273,310.125 C173.693,310.125 178.898,315.498 178.898,322.125 C178.898,328.752 173.693,334.125 167.273,334.125 z" fill-opacity="0" stroke="#029C1B" stroke-width="1.5"/>
          </g>
          <text transform="matrix(1, 0, 0, 1, 166.97, 319.875)">
            <tspan x="-5.002" y="5.5" font-family="Helvetica" font-size="15" fill="#FFFDFD">S</tspan>
          </text>
        </g>
        <g>
          <g>
            <path d="M194.75,274.375 C188.329,274.375 183.125,269.002 183.125,262.375 C183.125,255.748 188.329,250.375 194.75,250.375 C201.17,250.375 206.375,255.748 206.375,262.375 C206.375,269.002 201.17,274.375 194.75,274.375 z" fill="#FF2A00"/>
            <path d="M195.25,274.875 C188.829,274.875 183.625,269.502 183.625,262.875 C183.625,256.248 188.829,250.875 195.25,250.875 C201.67,250.875 206.875,256.248 206.875,262.875 C206.875,269.502 201.67,274.875 195.25,274.875 z" fill-opacity="0" stroke="#590900" stroke-width="1.5"/>
          </g>
          <text transform="matrix(1, 0, 0, 1, 195.361, 260.625)">
            <tspan x="-5.416" y="5.5" font-family="Helvetica" font-size="15" fill="#FFFDFD">R</tspan>
          </text>
        </g>
      </g>
      <g>
        <g>
          <path d="M134.5,433.125 L244.977,433.125 L244.977,506 L134.5,506 L134.5,433.125 z" fill="#CA9C09"/>
          <path d="M135,433.625 L245.477,433.625 L245.477,506.5 L135,506.5 L135,433.625 z" fill-opacity="0" stroke="#000000" stroke-width="3"/>
        </g>
        <g>
          <path d="M155.5,468.221 L223.977,468.221 L223.977,502.136 L155.5,502.136 L155.5,468.221 z" fill="#000000"/>
          <g>
            <path d="M156,468.721 L224.477,468.721 L224.477,502.636 L156,502.636 L156,468.721 z" fill="#000000"/>
            <path d="M156,468.721 L224.477,468.721 L224.477,502.636 L156,502.636 L156,468.721 z" fill-opacity="0" stroke="#000000" stroke-width="3"/>
          </g>
        </g>
        <text transform="matrix(1, 0, 0, 1, 189.738, 454.268)">
          <tspan x="-20.097" y="5.199" font-family="HelveticaNeue-Bold" font-size="14" fill="#000000">Driver</tspan>
        </text>
      </g>
      <g>
        <path d="M135.956,242.773 C150.993,240.949 163.758,244.208 164.466,250.051" fill-opacity="0" stroke="#000000" stroke-width="1"/>
        <path d="M108.503,260.496 C107.553,252.661 119.844,244.726 135.956,242.773" fill-opacity="0" stroke="#000000" stroke-width="1"/>
      </g>
    </g>
    <g>
      <g>
        <path d="M279.489,217.375 L520.989,217.375 L520.989,516.625 L279.489,516.625 L279.489,217.375 z" fill="#908C8C"/>
        <path d="M279.989,217.875 L521.489,217.875 L521.489,517.125 L279.989,517.125 L279.989,217.875 z" fill-opacity="0" stroke="#000000" stroke-width="1.5"/>
      </g>
      <g>
        <g>
          <path d="M302.5,229.625 L409,229.625 L409,277.625 L302.5,277.625 L302.5,229.625 z" fill="#F29F56"/>
          <path d="M303,230.125 L409.5,230.125 L409.5,278.125 L303,278.125 L303,230.125 z" fill-opacity="0" stroke="#000000" stroke-width="1.5"/>
        </g>
        <text transform="matrix(1, 0, 0, 1, 356.166, 253.375)">
          <tspan x="-34.148" y="7" font-family="Helvetica" font-size="21" fill="#000000">Worker</tspan>
        </text>
      </g>
      <g>
        <path d="M302.5,297.5 L497.977,297.5 L497.977,499 L302.5,499 L302.5,297.5 z" fill="#CA9C09"/>
        <g>
          <path d="M303,298 L498.477,298 L498.477,499.5 L303,499.5 L303,298 z" fill="#CA9C09"/>
          <path d="M303,298 L498.477,298 L498.477,499.5 L303,499.5 L303,298 z" fill-opacity="0" stroke="#000000" stroke-width="3"/>
        </g>
      </g>
      <text transform="matrix(1, 0, 0, 1, 355.437, 312.5)">
        <tspan x="-36.017" y="6" font-family="Helvetica" font-size="18" fill="#000000">Executor</tspan>
      </text>
      <g>
        <g>
          <path d="M312.5,345 L411.477,345 L411.477,376.5 L312.5,376.5 L312.5,345 z" fill="#9DDDF4"/>
          <path d="M313,345.5 L411.977,345.5 L411.977,377 L313,377 L313,345.5 z" fill-opacity="0" stroke="#000000" stroke-width="1.5"/>
        </g>
        <text transform="matrix(1, 0, 0, 1, 365.449, 361.875)">
          <tspan x="-38.756" y="4.375" font-family="Helvetica" font-size="15" fill="#000000">RDD 1 (P2)</tspan>
        </text>
      </g>
      <g>
        <g>
          <g>
            <path d="M440.898,364.25 C434.477,364.25 429.273,358.877 429.273,352.25 C429.273,345.623 434.477,340.25 440.898,340.25 C447.318,340.25 452.523,345.623 452.523,352.25 C452.523,358.877 447.318,364.25 440.898,364.25 z" fill="#04A567"/>
            <path d="M441.398,364.75 C434.977,364.75 429.773,359.377 429.773,352.75 C429.773,346.123 434.977,340.75 441.398,340.75 C447.818,340.75 453.023,346.123 453.023,352.75 C453.023,359.377 447.818,364.75 441.398,364.75 z" fill-opacity="0" stroke="#029C1B" stroke-width="1.5"/>
          </g>
          <text transform="matrix(1, 0, 0, 1, 440.674, 350.5)">
            <tspan x="-4.581" y="5.5" font-family="Helvetica" font-size="15" fill="#FFFDFD">T</tspan>
          </text>
        </g>
        <g>
          <g>
            <path d="M441.523,335.75 C435.102,335.75 429.898,330.377 429.898,323.75 C429.898,317.123 435.102,311.75 441.523,311.75 C447.943,311.75 453.148,317.123 453.148,323.75 C453.148,330.377 447.943,335.75 441.523,335.75 z" fill="#04A567"/>
            <path d="M442.023,336.25 C435.602,336.25 430.398,330.877 430.398,324.25 C430.398,317.623 435.602,312.25 442.023,312.25 C448.443,312.25 453.648,317.623 453.648,324.25 C453.648,330.877 448.443,336.25 442.023,336.25 z" fill-opacity="0" stroke="#029C1B" stroke-width="1.5"/>
          </g>
          <text transform="matrix(1, 0, 0, 1, 441.72, 322)">
            <tspan x="-5.002" y="5.5" font-family="Helvetica" font-size="15" fill="#FFFDFD">S</tspan>
          </text>
        </g>
        <g>
          <g>
            <path d="M470.875,364.5 C464.454,364.5 459.25,359.127 459.25,352.5 C459.25,345.873 464.454,340.5 470.875,340.5 C477.295,340.5 482.5,345.873 482.5,352.5 C482.5,359.127 477.295,364.5 470.875,364.5 z" fill="#04A567"/>
            <path d="M471.375,365 C464.954,365 459.75,359.627 459.75,353 C459.75,346.373 464.954,341 471.375,341 C477.795,341 483,346.373 483,353 C483,359.627 477.795,365 471.375,365 z" fill-opacity="0" stroke="#029C1B" stroke-width="1.5"/>
          </g>
          <text transform="matrix(1, 0, 0, 1, 471.072, 350.75)">
            <tspan x="-5.002" y="5.5" font-family="Helvetica" font-size="15" fill="#FFFDFD">S</tspan>
          </text>
        </g>
        <g>
          <g>
            <path d="M471.875,393.5 C465.454,393.5 460.25,388.127 460.25,381.5 C460.25,374.873 465.454,369.5 471.875,369.5 C478.295,369.5 483.5,374.873 483.5,381.5 C483.5,388.127 478.295,393.5 471.875,393.5 z" fill="#04A567"/>
            <path d="M472.375,394 C465.954,394 460.75,388.627 460.75,382 C460.75,375.373 465.954,370 472.375,370 C478.795,370 484,375.373 484,382 C484,388.627 478.795,394 472.375,394 z" fill-opacity="0" stroke="#029C1B" stroke-width="1.5"/>
          </g>
          <text transform="matrix(1, 0, 0, 1, 472.072, 379.75)">
            <tspan x="-5.002" y="5.5" font-family="Helvetica" font-size="15" fill="#FFFDFD">S</tspan>
          </text>
        </g>
        <g>
          <g>
            <path d="M441.898,393.5 C435.477,393.5 430.273,388.127 430.273,381.5 C430.273,374.873 435.477,369.5 441.898,369.5 C448.318,369.5 453.523,374.873 453.523,381.5 C453.523,388.127 448.318,393.5 441.898,393.5 z" fill="#04A567"/>
            <path d="M442.398,394 C435.977,394 430.773,388.627 430.773,382 C430.773,375.373 435.977,370 442.398,370 C448.818,370 454.023,375.373 454.023,382 C454.023,388.627 448.818,394 442.398,394 z" fill-opacity="0" stroke="#029C1B" stroke-width="1.5"/>
          </g>
          <text transform="matrix(1, 0, 0, 1, 442.095, 379.75)">
            <tspan x="-5.002" y="5.5" font-family="Helvetica" font-size="15" fill="#FFFDFD">S</tspan>
          </text>
        </g>
        <g>
          <g>
            <path d="M469.875,334.25 C463.454,334.25 458.25,328.877 458.25,322.25 C458.25,315.623 463.454,310.25 469.875,310.25 C476.295,310.25 481.5,315.623 481.5,322.25 C481.5,328.877 476.295,334.25 469.875,334.25 z" fill="#04A567"/>
            <path d="M469.875,334.25 C463.454,334.25 458.25,328.877 458.25,322.25 C458.25,315.623 463.454,310.25 469.875,310.25 C476.295,310.25 481.5,315.623 481.5,322.25 C481.5,328.877 476.295,334.25 469.875,334.25 z" fill="#04A567"/>
          </g>
          <text transform="matrix(1, 0, 0, 1, 470.072, 320.5)">
            <tspan x="-5.002" y="5.5" font-family="Helvetica" font-size="15" fill="#FFFDFD">S</tspan>
          </text>
        </g>
      </g>
      <g>
        <path d="M402.586,331 C419.383,331 433,335.674 433,341.441" fill-opacity="0" stroke="#000000" stroke-width="1"/>
        <path d="M370,345 C370,337.268 384.589,331 402.586,331" fill-opacity="0" stroke="#000000" stroke-width="1"/>
      </g>
    </g>
    <text transform="matrix(1, 0, 0, 1, 396, 556.5)">
      <tspan x="-97.245" y="11" font-family="HelveticaNeue" font-size="30" fill="#000000">3-node cluster</tspan>
    </text>
    <g>
      <g>
        <path d="M546.5,217.375 L788,217.375 L788,516.625 L546.5,516.625 L546.5,217.375 z" fill="#908C8C"/>
        <path d="M547,217.875 L788.5,217.875 L788.5,517.125 L547,517.125 L547,217.875 z" fill-opacity="0" stroke="#000000" stroke-width="1.5"/>
      </g>
      <g>
        <g>
          <path d="M569.511,229.625 L676.011,229.625 L676.011,277.625 L569.511,277.625 L569.511,229.625 z" fill="#F29F56"/>
          <path d="M570.011,230.125 L676.511,230.125 L676.511,278.125 L570.011,278.125 L570.011,230.125 z" fill-opacity="0" stroke="#000000" stroke-width="1.5"/>
        </g>
        <text transform="matrix(1, 0, 0, 1, 623.178, 253.375)">
          <tspan x="-34.148" y="7" font-family="Helvetica" font-size="21" fill="#000000">Worker</tspan>
        </text>
      </g>
      <g>
        <path d="M569.511,297.5 L764.989,297.5 L764.989,499 L569.511,499 L569.511,297.5 z" fill="#CA9C09"/>
        <path d="M570.011,298 L765.489,298 L765.489,499.5 L570.011,499.5 L570.011,298 z" fill-opacity="0" stroke="#000000" stroke-width="3"/>
      </g>
      <text transform="matrix(1, 0, 0, 1, 622.449, 312.5)">
        <tspan x="-36.017" y="6" font-family="Helvetica" font-size="18" fill="#000000">Executor</tspan>
      </text>
      <g>
        <g>
          <path d="M579.511,345 L678.488,345 L678.488,376.5 L579.511,376.5 L579.511,345 z" fill="#9DDDF4"/>
          <path d="M580.011,345.5 L678.988,345.5 L678.988,377 L580.011,377 L580.011,345.5 z" fill-opacity="0" stroke="#000000" stroke-width="1.5"/>
        </g>
        <text transform="matrix(1, 0, 0, 1, 632.46, 361.875)">
          <tspan x="-38.756" y="4.375" font-family="Helvetica" font-size="15" fill="#000000">RDD 1 (P3)</tspan>
        </text>
      </g>
      <g>
        <g>
          <g>
            <path d="M714.398,363.75 C707.977,363.75 702.773,358.377 702.773,351.75 C702.773,345.123 707.977,339.75 714.398,339.75 C720.818,339.75 726.023,345.123 726.023,351.75 C726.023,358.377 720.818,363.75 714.398,363.75 z" fill="#04A567"/>
            <path d="M714.898,364.25 C708.477,364.25 703.273,358.877 703.273,352.25 C703.273,345.623 708.477,340.25 714.898,340.25 C721.318,340.25 726.523,345.623 726.523,352.25 C726.523,358.877 721.318,364.25 714.898,364.25 z" fill-opacity="0" stroke="#029C1B" stroke-width="1.5"/>
          </g>
          <text transform="matrix(1, 0, 0, 1, 714.595, 350)">
            <tspan x="-5.002" y="5.5" font-family="Helvetica" font-size="15" fill="#FFFDFD">S</tspan>
          </text>
        </g>
        <g>
          <g>
            <path d="M715.023,335.25 C708.602,335.25 703.398,329.877 703.398,323.25 C703.398,316.623 708.602,311.25 715.023,311.25 C721.443,311.25 726.648,316.623 726.648,323.25 C726.648,329.877 721.443,335.25 715.023,335.25 z" fill="#04A567"/>
            <path d="M715.523,335.75 C709.102,335.75 703.898,330.377 703.898,323.75 C703.898,317.123 709.102,311.75 715.523,311.75 C721.943,311.75 727.148,317.123 727.148,323.75 C727.148,330.377 721.943,335.75 715.523,335.75 z" fill-opacity="0" stroke="#029C1B" stroke-width="1.5"/>
          </g>
          <text transform="matrix(1, 0, 0, 1, 714.799, 321.5)">
            <tspan x="-4.581" y="5.5" font-family="Helvetica" font-size="15" fill="#FFFDFD">T</tspan>
          </text>
        </g>
        <g>
          <g>
            <path d="M744.375,364 C737.954,364 732.75,358.627 732.75,352 C732.75,345.373 737.954,340 744.375,340 C750.795,340 756,345.373 756,352 C756,358.627 750.795,364 744.375,364 z" fill="#04A567"/>
            <path d="M744.875,364.5 C738.454,364.5 733.25,359.127 733.25,352.5 C733.25,345.873 738.454,340.5 744.875,340.5 C751.295,340.5 756.5,345.873 756.5,352.5 C756.5,359.127 751.295,364.5 744.875,364.5 z" fill-opacity="0" stroke="#029C1B" stroke-width="1.5"/>
          </g>
          <text transform="matrix(1, 0, 0, 1, 744.572, 350.25)">
            <tspan x="-5.002" y="5.5" font-family="Helvetica" font-size="15" fill="#FFFDFD">S</tspan>
          </text>
        </g>
        <g>
          <g>
            <path d="M745.375,393 C738.954,393 733.75,387.627 733.75,381 C733.75,374.373 738.954,369 745.375,369 C751.795,369 757,374.373 757,381 C757,387.627 751.795,393 745.375,393 z" fill="#04A567"/>
            <path d="M745.875,393.5 C739.454,393.5 734.25,388.127 734.25,381.5 C734.25,374.873 739.454,369.5 745.875,369.5 C752.295,369.5 757.5,374.873 757.5,381.5 C757.5,388.127 752.295,393.5 745.875,393.5 z" fill-opacity="0" stroke="#029C1B" stroke-width="1.5"/>
          </g>
          <text transform="matrix(1, 0, 0, 1, 745.572, 379.25)">
            <tspan x="-5.002" y="5.5" font-family="Helvetica" font-size="15" fill="#FFFDFD">S</tspan>
          </text>
        </g>
        <g>
          <g>
            <path d="M715.398,393 C708.977,393 703.773,387.627 703.773,381 C703.773,374.373 708.977,369 715.398,369 C721.818,369 727.023,374.373 727.023,381 C727.023,387.627 721.818,393 715.398,393 z" fill="#04A567"/>
            <g>
              <path d="M715.898,393.5 C709.477,393.5 704.273,388.127 704.273,381.5 C704.273,374.873 709.477,369.5 715.898,369.5 C722.318,369.5 727.523,374.873 727.523,381.5 C727.523,388.127 722.318,393.5 715.898,393.5 z" fill="#04A567"/>
              <path d="M715.898,393.5 C709.477,393.5 704.273,388.127 704.273,381.5 C704.273,374.873 709.477,369.5 715.898,369.5 C722.318,369.5 727.523,374.873 727.523,381.5 C727.523,388.127 722.318,393.5 715.898,393.5 z" fill-opacity="0" stroke="#029C1B" stroke-width="1.5"/>
            </g>
          </g>
          <text transform="matrix(1, 0, 0, 1, 715.595, 379.25)">
            <tspan x="-5.002" y="5.5" font-family="Helvetica" font-size="15" fill="#04A567">S</tspan>
          </text>
        </g>
        <g>
          <g>
            <path d="M743.375,333.75 C736.954,333.75 731.75,328.377 731.75,321.75 C731.75,315.123 736.954,309.75 743.375,309.75 C749.795,309.75 755,315.123 755,321.75 C755,328.377 749.795,333.75 743.375,333.75 z" fill="#04A567"/>
            <g>
              <path d="M743.875,334.25 C737.454,334.25 732.25,328.877 732.25,322.25 C732.25,315.623 737.454,310.25 743.875,310.25 C750.295,310.25 755.5,315.623 755.5,322.25 C755.5,328.877 750.295,334.25 743.875,334.25 z" fill="#04A567"/>
              <path d="M743.875,334.25 C737.454,334.25 732.25,328.877 732.25,322.25 C732.25,315.623 737.454,310.25 743.875,310.25 C750.295,310.25 755.5,315.623 755.5,322.25 C755.5,328.877 750.295,334.25 743.875,334.25 z" fill-opacity="0" stroke="#04A567" stroke-width="1.5"/>
            </g>
          </g>
          <text transform="matrix(1, 0, 0, 1, 743.572, 320)">
            <tspan x="-5.002" y="5.5" font-family="Helvetica" font-size="15" fill="#FFFDFD">S</tspan>
          </text>
        </g>
      </g>
      <text transform="matrix(1, 0, 0, 1, 714.498, 382)">
        <tspan x="-5.002" y="5.5" font-family="Helvetica" font-size="15" fill="#FFFDFD">S</tspan>
      </text>
      <g>
        <path d="M669.165,318.728 C687.978,311.448 704.893,309.844 706.945,315.147" fill-opacity="0" stroke="#000000" stroke-width="1"/>
        <path d="M637.648,345.726 C634.897,338.616 649.007,326.528 669.165,318.728" fill-opacity="0" stroke="#000000" stroke-width="1"/>
      </g>
    </g>
    <g>
      <path d="M507.656,202.149" fill="#FFFFFF"/>
      <path d="M507.656,202.149" fill-opacity="0" stroke="#000000" stroke-width="1" stroke-miterlimit="10"/>
    </g>
    <g>
      <path d="M507.456,202.149" fill="#FFFFFF"/>
      <path d="M507.456,202.149" fill-opacity="0" stroke="#000000" stroke-width="1" stroke-miterlimit="10"/>
    </g>
    <g>
      <text transform="matrix(1, 0, 0, 1, 601.413, 73.824)">
        <tspan x="-50.004" y="-31" font-family="HelveticaNeue" font-size="24" fill="#000000">source of </tspan>
        <tspan x="-52.908" y="-2" font-family="HelveticaNeue" font-size="24" fill="#000000">streaming </tspan>
        <tspan x="-23.784" y="27" font-family="HelveticaNeue" font-size="24" fill="#000000">data</tspan>
      </text>
      <g>
        <path d="M680.273,101.884 C697.345,101.781 717.753,86.978 717.753,68.536 C717.753,50.029 703.848,35.026 686.695,35.026 C684.178,35.026 681.734,35.356 679.391,35.966 C674.691,19.797 653.871,7.608 628.893,7.608 C619.106,7.608 609.955,9.48 602.164,12.728 C596.13,5.237 587.276,0.5 577.397,0.5 C560.023,0.5 545.804,15.136 544.577,33.682 C540.029,29.974 534.496,27.792 528.522,27.792 C513.046,27.792 500.5,42.395 500.5,60.412 C500.5,78.429 513.046,93.033 528.522,93.033 C530.137,93.033 531.717,92.865 533.256,92.56 C537.617,109.382 547.1,109.275 555.649,113.441" fill-opacity="0" stroke="#000000" stroke-width="1" stroke-miterlimit="10"/>
        <path d="M616.627,116.372 C622.218,114.608 627.287,112.313 631.639,109.587 C636.817,114.353 643.878,115.912 651.434,117.277 C668.295,120.323 680.273,105.436 680.273,101.884" fill-opacity="0" stroke="#000000" stroke-width="1" stroke-miterlimit="10"/>
        <path d="M610.167,107.301" fill-opacity="0" stroke="#000000" stroke-width="1" stroke-miterlimit="10"/>
        <path d="M609.902,107.301" fill-opacity="0" stroke="#000000" stroke-width="1" stroke-miterlimit="10"/>
        <path d="M555.649,113.441 C565.274,117.762 577.142,120.324 590.004,120.324 C606.223,120.324 613.034,116.799 616.627,116.372" fill-opacity="0" stroke="#000000" stroke-width="1" stroke-miterlimit="10"/>
      </g>
    </g>
    <path d="M136.5,231 L136.5,231" fill-opacity="0" stroke="#000000" stroke-width="1"/>
  </g>
  <g id="Layer_2" class="fragment" data-fragment-index="1">
    <g>
      <path d="M500.5,82.5 L218.54,245.689" fill-opacity="0" stroke="#F70101" stroke-width="4"/>
      <path d="M218.54,245.689 L218.905,239.932 L210.231,250.498 L223.714,248.241 z" fill="#F70101" fill-opacity="1" stroke="#F70101" stroke-width="4" stroke-opacity="1"/>
    </g>
  </g>
  <g id="Layer-3-one-time" class="fragment current-visible current_visible current_visible current_visible current_visible current_visible current_visible current_visible current_visible" data-fragment-index="2">
    <g>
      <path d="M185.5,271.5 L149.891,305.49" fill-opacity="0" stroke="#FF0000" stroke-width="4"/>
      <path d="M149.891,305.49 L148.891,299.809 L142.947,312.119 L155.52,306.753 z" fill="#FF0000" fill-opacity="1" stroke="#FF0000" stroke-width="4" stroke-opacity="1"/>
    </g>
    <g>
      <path d="M208.5,271.5 L301.074,382.589" fill-opacity="0" stroke="#FF0000" stroke-width="4"/>
      <path d="M301.074,382.589 L295.338,383.203 L307.22,389.964 L302.713,377.057 z" fill="#FF0000" fill-opacity="1" stroke="#FF0000" stroke-width="4" stroke-opacity="1"/>
    </g>
    <g>
      <g>
        <path d="M37.023,302.5 L136,302.5 L136,334 L37.023,334 L37.023,302.5 z" fill="#FF2A00"/>
        <path d="M37.523,303 L136.5,303 L136.5,334.5 L37.523,334.5 L37.523,303 z" fill-opacity="0" stroke="#000000" stroke-width="1.5"/>
      </g>
      <text transform="matrix(1, 0, 0, 1, 89.972, 319.375)">
        <tspan x="-30.85" y="4.375" font-family="Helvetica" font-size="15" fill="#000000">block, P1</tspan>
      </text>
    </g>
    <g>
      <g>
        <path d="M312.5,385.5 L411.477,385.5 L411.477,417 L312.5,417 L312.5,385.5 z" fill="#FF2A00"/>
        <path d="M313,386 L411.977,386 L411.977,417.5 L313,417.5 L313,386 z" fill-opacity="0" stroke="#000000" stroke-width="1.5"/>
      </g>
      <text transform="matrix(1, 0, 0, 1, 365.449, 402.375)">
        <tspan x="-30.85" y="4.375" font-family="Helvetica" font-size="15" fill="#000000">block, P1</tspan>
      </text>
    </g>
  </g>
  <g id="Layer-4-one-time" class="fragment current-visible current_visible current_visible current_visible current_visible current_visible current_visible current_visible current_visible" data-fragment-index="3">
    <g>
      <g>
        <path d="M312.5,417 L411.477,417 L411.477,448.5 L312.5,448.5 L312.5,417 z" fill="#FF2A00"/>
        <path d="M313,417.5 L411.977,417.5 L411.977,449 L313,449 L313,417.5 z" fill-opacity="0" stroke="#000000" stroke-width="1.5"/>
      </g>
      <text transform="matrix(1, 0, 0, 1, 365.449, 433.875)">
        <tspan x="-30.85" y="4.375" font-family="Helvetica" font-size="15" fill="#000000">block, P2</tspan>
      </text>
    </g>
    <g>
      <g>
        <path d="M578.646,388.5 L677.624,388.5 L677.624,420 L578.646,420 L578.646,388.5 z" fill="#FF2A00"/>
        <path d="M579.146,389 L678.124,389 L678.124,420.5 L579.146,420.5 L579.146,389 z" fill-opacity="0" stroke="#000000" stroke-width="1.5"/>
      </g>
      <text transform="matrix(1, 0, 0, 1, 631.596, 405.375)">
        <tspan x="-30.85" y="4.375" font-family="Helvetica" font-size="15" fill="#000000">block, P2</tspan>
      </text>
    </g>
    <g>
      <path d="M208.5,273.5 L301.975,410.909" fill-opacity="0" stroke="#FF0000" stroke-width="4"/>
      <path d="M301.975,410.909 L296.207,410.963 L307.375,418.846 L304.144,405.563 z" fill="#FF0000" fill-opacity="1" stroke="#FF0000" stroke-width="4" stroke-opacity="1"/>
    </g>
    <g>
      <path d="M208.5,273.5 L568.146,393.82" fill-opacity="0" stroke="#FF0000" stroke-width="4"/>
      <path d="M568.146,393.82 L563.588,397.356 L577.25,396.865 L566.634,388.252 z" fill="#FF0000" fill-opacity="1" stroke="#FF0000" stroke-width="4" stroke-opacity="1"/>
    </g>
    <g>
      <g>
        <path d="M37.023,302.5 L136,302.5 L136,334 L37.023,334 L37.023,302.5 z" fill="#FF2A00"/>
        <path d="M37.523,303 L136.5,303 L136.5,334.5 L37.523,334.5 L37.523,303 z" fill-opacity="0" stroke="#000000" stroke-width="1.5"/>
      </g>
      <text transform="matrix(1, 0, 0, 1, 89.972, 319.375)">
        <tspan x="-30.85" y="4.375" font-family="Helvetica" font-size="15" fill="#000000">block, P1</tspan>
      </text>
    </g>
    <g>
      <g>
        <path d="M312.5,385.5 L411.477,385.5 L411.477,417 L312.5,417 L312.5,385.5 z" fill="#FF2A00"/>
        <path d="M313,386 L411.977,386 L411.977,417.5 L313,417.5 L313,386 z" fill-opacity="0" stroke="#000000" stroke-width="1.5"/>
      </g>
      <text transform="matrix(1, 0, 0, 1, 365.449, 402.375)">
        <tspan x="-30.85" y="4.375" font-family="Helvetica" font-size="15" fill="#000000">block, P1</tspan>
      </text>
    </g>
  </g>
  <g id="Layer-5-one-time" class="fragment current-visible current_visible current_visible current_visible current_visible current_visible current_visible current_visible current_visible" data-fragment-index="4">
    <g>
      <g>
        <path d="M312.5,417 L411.477,417 L411.477,448.5 L312.5,448.5 L312.5,417 z" fill="#FF2A00"/>
        <path d="M313,417.5 L411.977,417.5 L411.977,449 L313,449 L313,417.5 z" fill-opacity="0" stroke="#000000" stroke-width="1.5"/>
      </g>
      <text transform="matrix(1, 0, 0, 1, 365.449, 433.875)">
        <tspan x="-30.85" y="4.375" font-family="Helvetica" font-size="15" fill="#000000">block, P2</tspan>
      </text>
    </g>
    <g>
      <g>
        <path d="M578.646,388.5 L677.624,388.5 L677.624,420 L578.646,420 L578.646,388.5 z" fill="#FF2A00"/>
        <path d="M579.146,389 L678.124,389 L678.124,420.5 L579.146,420.5 L579.146,389 z" fill-opacity="0" stroke="#000000" stroke-width="1.5"/>
      </g>
      <text transform="matrix(1, 0, 0, 1, 631.596, 405.375)">
        <tspan x="-30.85" y="4.375" font-family="Helvetica" font-size="15" fill="#000000">block, P2</tspan>
      </text>
    </g>
    <g>
      <path d="M185.5,273.5 L147.37,338.495" fill-opacity="0" stroke="#FF0000" stroke-width="4"/>
      <path d="M147.37,338.495 L144.849,333.306 L142.512,346.775 L153.129,338.164 z" fill="#FF0000" fill-opacity="1" stroke="#FF0000" stroke-width="4" stroke-opacity="1"/>
    </g>
    <g>
      <path d="M208.5,273.5 L559.847,424.909" fill-opacity="0" stroke="#FF0000" stroke-width="4"/>
      <path d="M559.847,424.909 L555.009,428.051 L568.663,428.708 L558.808,419.235 z" fill="#FF0000" fill-opacity="1" stroke="#FF0000" stroke-width="4" stroke-opacity="1"/>
    </g>
    <g>
      <g>
        <path d="M37.023,302.5 L136,302.5 L136,334 L37.023,334 L37.023,302.5 z" fill="#FF2A00"/>
        <path d="M37.523,303 L136.5,303 L136.5,334.5 L37.523,334.5 L37.523,303 z" fill-opacity="0" stroke="#000000" stroke-width="1.5"/>
      </g>
      <text transform="matrix(1, 0, 0, 1, 89.972, 319.375)">
        <tspan x="-30.85" y="4.375" font-family="Helvetica" font-size="15" fill="#000000">block, P1</tspan>
      </text>
    </g>
    <g>
      <g>
        <path d="M312.5,385.5 L411.477,385.5 L411.477,417 L312.5,417 L312.5,385.5 z" fill="#FF2A00"/>
        <path d="M313,386 L411.977,386 L411.977,417.5 L313,417.5 L313,386 z" fill-opacity="0" stroke="#000000" stroke-width="1.5"/>
      </g>
      <text transform="matrix(1, 0, 0, 1, 365.449, 402.375)">
        <tspan x="-30.85" y="4.375" font-family="Helvetica" font-size="15" fill="#000000">block, P1</tspan>
      </text>
    </g>
    <g>
      <g>
        <path d="M37.023,334 L136,334 L136,365.5 L37.023,365.5 L37.023,334 z" fill="#FF2A00"/>
        <path d="M37.523,334.5 L136.5,334.5 L136.5,366 L37.523,366 L37.523,334.5 z" fill-opacity="0" stroke="#000000" stroke-width="1.5"/>
      </g>
      <text transform="matrix(1, 0, 0, 1, 89.972, 350.875)">
        <tspan x="-30.85" y="4.375" font-family="Helvetica" font-size="15" fill="#000000">block, P3</tspan>
      </text>
    </g>
    <g>
      <g>
        <path d="M578.646,420 L677.624,420 L677.624,451.5 L578.646,451.5 L578.646,420 z" fill="#FF2A00"/>
        <path d="M579.146,420.5 L678.124,420.5 L678.124,452 L579.146,452 L579.146,420.5 z" fill-opacity="0" stroke="#000000" stroke-width="1.5"/>
      </g>
      <text transform="matrix(1, 0, 0, 1, 631.596, 436.875)">
        <tspan x="-30.85" y="4.375" font-family="Helvetica" font-size="15" fill="#000000">block, P3</tspan>
      </text>
    </g>
  </g>
  <g id="Layer-6-one-time" class="fragment current-visible current_visible current_visible current_visible current_visible current_visible current_visible current_visible current_visible" data-fragment-index="5">
    <g>
      <g>
        <path d="M312.5,417 L411.477,417 L411.477,448.5 L312.5,448.5 L312.5,417 z" fill="#9DDDF4"/>
        <g>
          <path d="M313,417.5 L411.977,417.5 L411.977,449 L313,449 L313,417.5 z" fill="#9DDDF4"/>
          <path d="M313,417.5 L411.977,417.5 L411.977,449 L313,449 L313,417.5 z" fill-opacity="0" stroke="#000000" stroke-width="1.5"/>
        </g>
      </g>
      <text transform="matrix(1, 0, 0, 1, 365.449, 433.875)">
        <tspan x="-38.756" y="4.375" font-family="Helvetica" font-size="15" fill="#000000">RDD 2 (P2)</tspan>
      </text>
    </g>
    <g>
      <g>
        <path d="M578.647,460.5 L677.624,460.5 L677.624,492 L578.647,492 L578.647,460.5 z" fill="#FFB6A7"/>
        <g>
          <path d="M579.147,461 L678.124,461 L678.124,492.5 L579.147,492.5 L579.147,461 z" fill="#FFB6A7"/>
          <path d="M579.147,461 L678.124,461 L678.124,492.5 L579.147,492.5 L579.147,461 z" fill-opacity="0" stroke="#000000" stroke-width="1.5"/>
        </g>
      </g>
      <text transform="matrix(1, 0, 0, 1, 631.596, 477.375)">
        <tspan x="-30.85" y="4.375" font-family="Helvetica" font-size="15" fill="#000000">block, P2</tspan>
      </text>
    </g>
    <g>
      <g>
        <path d="M37.023,302.5 L136,302.5 L136,334 L37.023,334 L37.023,302.5 z" fill="#9DDDF4"/>
        <g>
          <path d="M37.523,303 L136.5,303 L136.5,334.5 L37.523,334.5 L37.523,303 z" fill="#9DDDF4"/>
          <path d="M37.523,303 L136.5,303 L136.5,334.5 L37.523,334.5 L37.523,303 z" fill-opacity="0" stroke="#000000" stroke-width="1.5"/>
        </g>
      </g>
      <text transform="matrix(1, 0, 0, 1, 89.972, 319.375)">
        <tspan x="-38.756" y="4.375" font-family="Helvetica" font-size="15" fill="#000000">RDD 2 (P1)</tspan>
      </text>
    </g>
    <g>
      <g>
        <path d="M312.5,460.5 L411.477,460.5 L411.477,492 L312.5,492 L312.5,460.5 z" fill="#FFB6A7"/>
        <g>
          <path d="M313,461 L411.977,461 L411.977,492.5 L313,492.5 L313,461 z" fill="#FFB6A7"/>
          <path d="M313,461 L411.977,461 L411.977,492.5 L313,492.5 L313,461 z" fill-opacity="0" stroke="#000000" stroke-width="1.5"/>
        </g>
      </g>
      <text transform="matrix(1, 0, 0, 1, 365.449, 477.375)">
        <tspan x="-30.85" y="4.375" font-family="Helvetica" font-size="15" fill="#000000">block, P1</tspan>
      </text>
    </g>
    <g>
      <g>
        <path d="M37.023,375 L136,375 L136,406.5 L37.023,406.5 L37.023,375 z" fill="#FFB6A7"/>
        <g>
          <path d="M37.523,375.5 L136.5,375.5 L136.5,407 L37.523,407 L37.523,375.5 z" fill="#FFB6A7"/>
          <path d="M37.523,375.5 L136.5,375.5 L136.5,407 L37.523,407 L37.523,375.5 z" fill-opacity="0" stroke="#000000" stroke-width="1.5"/>
        </g>
      </g>
      <text transform="matrix(1, 0, 0, 1, 89.972, 391.875)">
        <tspan x="-30.85" y="4.375" font-family="Helvetica" font-size="15" fill="#000000">block, P3</tspan>
      </text>
    </g>
    <g>
      <g>
        <path d="M578.646,420 L677.624,420 L677.624,451.5 L578.646,451.5 L578.646,420 z" fill="#9DDDF4"/>
        <path d="M579.146,420.5 L678.124,420.5 L678.124,452 L579.146,452 L579.146,420.5 z" fill-opacity="0" stroke="#000000" stroke-width="1.5"/>
      </g>
      <text transform="matrix(1, 0, 0, 1, 631.596, 436.875)">
        <tspan x="-38.756" y="4.375" font-family="Helvetica" font-size="15" fill="#000000">RDD 2 (P3)</tspan>
      </text>
    </g>
    <g>
      <g>
        <path d="M166.708,334 C160.287,334 155.083,328.627 155.083,322 C155.083,315.373 160.287,310 166.708,310 C173.128,310 178.333,315.373 178.333,322 C178.333,328.627 173.128,334 166.708,334 z" fill="#04A567"/>
        <path d="M167.208,334.5 C160.787,334.5 155.583,329.127 155.583,322.5 C155.583,315.873 160.787,310.5 167.208,310.5 C173.628,310.5 178.833,315.873 178.833,322.5 C178.833,329.127 173.628,334.5 167.208,334.5 z" fill-opacity="0" stroke="#029C1B" stroke-width="1.5"/>
      </g>
      <text transform="matrix(1, 0, 0, 1, 166.485, 320.25)">
        <tspan x="-4.581" y="5.5" font-family="Helvetica" font-size="15" fill="#FFFDFD">T</tspan>
      </text>
    </g>
    <g>
      <g>
        <path d="M442.042,393.333 C435.621,393.333 430.417,387.96 430.417,381.333 C430.417,374.706 435.621,369.333 442.042,369.333 C448.462,369.333 453.667,374.706 453.667,381.333 C453.667,387.96 448.462,393.333 442.042,393.333 z" fill="#04A567"/>
        <path d="M442.542,393.833 C436.121,393.833 430.917,388.46 430.917,381.833 C430.917,375.206 436.121,369.833 442.542,369.833 C448.962,369.833 454.167,375.206 454.167,381.833 C454.167,388.46 448.962,393.833 442.542,393.833 z" fill-opacity="0" stroke="#029C1B" stroke-width="1.5"/>
      </g>
      <text transform="matrix(1, 0, 0, 1, 441.818, 379.583)">
        <tspan x="-4.581" y="5.5" font-family="Helvetica" font-size="15" fill="#FFFDFD">T</tspan>
      </text>
    </g>
    <g>
      <g>
        <path d="M714.708,393.333 C708.287,393.333 703.083,387.96 703.083,381.333 C703.083,374.706 708.287,369.333 714.708,369.333 C721.128,369.333 726.333,374.706 726.333,381.333 C726.333,387.96 721.128,393.333 714.708,393.333 z" fill="#04A567"/>
        <path d="M715.208,393.833 C708.787,393.833 703.583,388.46 703.583,381.833 C703.583,375.206 708.787,369.833 715.208,369.833 C721.628,369.833 726.833,375.206 726.833,381.833 C726.833,388.46 721.628,393.833 715.208,393.833 z" fill-opacity="0" stroke="#029C1B" stroke-width="1.5"/>
      </g>
      <text transform="matrix(1, 0, 0, 1, 714.485, 379.583)">
        <tspan x="-4.581" y="5.5" font-family="Helvetica" font-size="15" fill="#FFFDFD">T</tspan>
      </text>
    </g>
    <g>
      <path d="M134.771,346.173 C150.175,346.624 162.777,343.078 162.918,338.254" fill-opacity="0" stroke="#000000" stroke-width="1"/>
      <path d="M105.23,333.585 C105.04,340.054 118.266,345.69 134.771,346.173" fill-opacity="0" stroke="#000000" stroke-width="1"/>
    </g>
    <g>
      <path d="M435.35,420.106 C443.48,410.039 447.532,399.828 444.401,397.3" fill-opacity="0" stroke="#000000" stroke-width="1"/>
      <path d="M411.977,433.499 C416.175,436.889 426.64,430.893 435.35,420.106" fill-opacity="0" stroke="#000000" stroke-width="1"/>
    </g>
    <g>
      <path d="M704.213,420.077 C713.311,410.904 717.869,400.674 714.394,397.226" fill-opacity="0" stroke="#000000" stroke-width="1"/>
      <path d="M678.124,429.5 C682.784,434.123 694.465,429.904 704.213,420.077" fill-opacity="0" stroke="#000000" stroke-width="1"/>
    </g>
  </g>
</svg>
