<?xml version="1.0" encoding="UTF-8"?>
<!DOCTYPE svg PUBLIC "-//W3C//DTD SVG 1.1//EN" "http://www.w3.org/Graphics/SVG/1.1/DTD/svg11.dtd">
<svg version="1.1" width="792" height="441">
  <g id="Layer_1" class="">
    <g>
      <g>
        <path d="M15.25,19 L256.75,19 L256.75,401.25 L15.25,401.25 L15.25,19 z" fill="#908C8C"/>
        <path d="M15.75,19.5 L257.25,19.5 L257.25,401.75 L15.75,401.75 L15.75,19.5 z" fill-opacity="0" stroke="#000000" stroke-width="1.5" stroke-linejoin="bevel"/>
      </g>
      <g>
        <g>
          <path d="M24.961,35 L131.461,35 L131.461,83 L24.961,83 L24.961,35 z" fill="#F29F56"/>
          <path d="M25.461,35.5 L131.961,35.5 L131.961,83.5 L25.461,83.5 L25.461,35.5 z" fill-opacity="0" stroke="#000000" stroke-width="1.5"/>
        </g>
        <text transform="matrix(1, 0, 0, 1, 78.627, 58.75)">
          <tspan x="-34.148" y="7" font-family="Helvetica" font-size="21" fill="#000000">Worker</tspan>
        </text>
      </g>
      <g>
        <path d="M25.273,99.125 L220.75,99.125 L220.75,300.625 L25.273,300.625 L25.273,99.125 z" fill="#CA9C09"/>
        <path d="M25.773,99.625 L221.25,99.625 L221.25,301.125 L25.773,301.125 L25.773,99.625 z" fill-opacity="0" stroke="#000000" stroke-width="3"/>
      </g>
      <text transform="matrix(1, 0, 0, 1, 78.211, 114.125)">
        <tspan x="-36.017" y="6" font-family="Helvetica" font-size="18" fill="#000000">Executor</tspan>
      </text>
      <g>
        <g>
          <path d="M35.273,146.625 L134.25,146.625 L134.25,178.125 L35.273,178.125 L35.273,146.625 z" fill="#9DDDF4"/>
          <g>
            <path d="M35.773,147.125 L134.75,147.125 L134.75,178.625 L35.773,178.625 L35.773,147.125 z" fill="#9DDDF4"/>
            <path d="M35.773,147.125 L134.75,147.125 L134.75,178.625 L35.773,178.625 L35.773,147.125 z" fill-opacity="0" stroke="#000000" stroke-width="1.5"/>
          </g>
        </g>
        <text transform="matrix(1, 0, 0, 1, 88.222, 163.5)">
          <tspan x="-38.756" y="4.375" font-family="Helvetica" font-size="15" fill="#000000">RDD 1 (P1)</tspan>
        </text>
      </g>
      <g>
        <g>
          <g>
            <path d="M165.523,189 C159.102,189 153.898,183.627 153.898,177 C153.898,170.373 159.102,165 165.523,165 C171.943,165 177.148,170.373 177.148,177 C177.148,183.627 171.943,189 165.523,189 z" fill="#04A567"/>
            <path d="M166.023,189.5 C159.602,189.5 154.398,184.127 154.398,177.5 C154.398,170.873 159.602,165.5 166.023,165.5 C172.443,165.5 177.648,170.873 177.648,177.5 C177.648,184.127 172.443,189.5 166.023,189.5 z" fill-opacity="0" stroke="#029C1B" stroke-width="1.5"/>
          </g>
          <text transform="matrix(1, 0, 0, 1, 165.72, 175.25)">
            <tspan x="-5.002" y="5.5" font-family="Helvetica" font-size="15" fill="#FFFDFD">S</tspan>
          </text>
        </g>
        <g>
          <g>
            <path d="M166.148,160.5 C159.727,160.5 154.523,155.127 154.523,148.5 C154.523,141.873 159.727,136.5 166.148,136.5 C172.568,136.5 177.773,141.873 177.773,148.5 C177.773,155.127 172.568,160.5 166.148,160.5 z" fill="#04A567"/>
            <path d="M166.648,161 C160.227,161 155.023,155.627 155.023,149 C155.023,142.373 160.227,137 166.648,137 C173.068,137 178.273,142.373 178.273,149 C178.273,155.627 173.068,161 166.648,161 z" fill-opacity="0" stroke="#029C1B" stroke-width="1.5"/>
          </g>
          <text transform="matrix(1, 0, 0, 1, 165.924, 146.75)">
            <tspan x="-4.581" y="5.5" font-family="Helvetica" font-size="15" fill="#FFFDFD">T</tspan>
          </text>
        </g>
        <g>
          <g>
            <path d="M195.5,189.25 C189.079,189.25 183.875,183.877 183.875,177.25 C183.875,170.623 189.079,165.25 195.5,165.25 C201.92,165.25 207.125,170.623 207.125,177.25 C207.125,183.877 201.92,189.25 195.5,189.25 z" fill="#04A567"/>
            <path d="M196,189.75 C189.579,189.75 184.375,184.377 184.375,177.75 C184.375,171.123 189.579,165.75 196,165.75 C202.42,165.75 207.625,171.123 207.625,177.75 C207.625,184.377 202.42,189.75 196,189.75 z" fill-opacity="0" stroke="#029C1B" stroke-width="1.5"/>
          </g>
          <text transform="matrix(1, 0, 0, 1, 195.697, 175.5)">
            <tspan x="-5.002" y="5.5" font-family="Helvetica" font-size="15" fill="#FFFDFD">S</tspan>
          </text>
        </g>
        <g>
          <g>
            <path d="M196.5,218.25 C190.079,218.25 184.875,212.877 184.875,206.25 C184.875,199.623 190.079,194.25 196.5,194.25 C202.92,194.25 208.125,199.623 208.125,206.25 C208.125,212.877 202.92,218.25 196.5,218.25 z" fill="#04A567"/>
            <path d="M197,218.75 C190.579,218.75 185.375,213.377 185.375,206.75 C185.375,200.123 190.579,194.75 197,194.75 C203.42,194.75 208.625,200.123 208.625,206.75 C208.625,213.377 203.42,218.75 197,218.75 z" fill-opacity="0" stroke="#029C1B" stroke-width="1.5"/>
          </g>
          <text transform="matrix(1, 0, 0, 1, 196.697, 204.5)">
            <tspan x="-5.002" y="5.5" font-family="Helvetica" font-size="15" fill="#FFFDFD">S</tspan>
          </text>
        </g>
        <g>
          <g>
            <path d="M166.523,218.25 C160.102,218.25 154.898,212.877 154.898,206.25 C154.898,199.623 160.102,194.25 166.523,194.25 C172.943,194.25 178.148,199.623 178.148,206.25 C178.148,212.877 172.943,218.25 166.523,218.25 z" fill="#04A567"/>
            <path d="M167.023,218.75 C160.602,218.75 155.398,213.377 155.398,206.75 C155.398,200.123 160.602,194.75 167.023,194.75 C173.443,194.75 178.648,200.123 178.648,206.75 C178.648,213.377 173.443,218.75 167.023,218.75 z" fill-opacity="0" stroke="#029C1B" stroke-width="1.5"/>
          </g>
          <text transform="matrix(1, 0, 0, 1, 166.72, 204.5)">
            <tspan x="-5.002" y="5.5" font-family="Helvetica" font-size="15" fill="#FFFDFD">S</tspan>
          </text>
        </g>
        <g>
          <g>
            <path d="M194.5,159 C188.079,159 182.875,153.627 182.875,147 C182.875,140.373 188.079,135 194.5,135 C200.92,135 206.125,140.373 206.125,147 C206.125,153.627 200.92,159 194.5,159 z" fill="#FF2A00"/>
            <path d="M195,159.5 C188.579,159.5 183.375,154.127 183.375,147.5 C183.375,140.873 188.579,135.5 195,135.5 C201.42,135.5 206.625,140.873 206.625,147.5 C206.625,154.127 201.42,159.5 195,159.5 z" fill-opacity="0" stroke="#590900" stroke-width="1.5"/>
          </g>
          <text transform="matrix(1, 0, 0, 1, 195.111, 145.25)">
            <tspan x="-5.416" y="5.5" font-family="Helvetica" font-size="15" fill="#FFFDFD">R</tspan>
          </text>
        </g>
      </g>
      <g>
        <g>
          <path d="M134.25,317.75 L244.727,317.75 L244.727,390.625 L134.25,390.625 L134.25,317.75 z" fill="#CA9C09"/>
          <path d="M134.75,318.25 L245.227,318.25 L245.227,391.125 L134.75,391.125 L134.75,318.25 z" fill-opacity="0" stroke="#000000" stroke-width="3"/>
        </g>
        <g>
          <path d="M155.25,352.846 L223.727,352.846 L223.727,386.761 L155.25,386.761 L155.25,352.846 z" fill="#000000"/>
          <g>
            <path d="M155.75,353.346 L224.227,353.346 L224.227,387.261 L155.75,387.261 L155.75,353.346 z" fill="#000000"/>
            <path d="M155.75,353.346 L224.227,353.346 L224.227,387.261 L155.75,387.261 L155.75,353.346 z" fill-opacity="0" stroke="#000000" stroke-width="3"/>
          </g>
        </g>
        <text transform="matrix(1, 0, 0, 1, 189.488, 338.893)">
          <tspan x="-20.097" y="5.199" font-family="HelveticaNeue-Bold" font-size="14" fill="#000000">Driver</tspan>
        </text>
      </g>
      <g>
        <path d="M135.706,127.397 C150.743,125.574 163.508,128.833 164.216,134.676" fill-opacity="0" stroke="#000000" stroke-width="1"/>
        <path d="M108.253,145.121 C107.303,137.286 119.594,129.351 135.706,127.398" fill-opacity="0" stroke="#000000" stroke-width="1"/>
      </g>
    </g>
    <g>
      <g>
        <path d="M275.25,131.375 L516.75,131.375 L516.75,430.625 L275.25,430.625 L275.25,131.375 z" fill="#908C8C"/>
        <path d="M275.75,131.875 L517.25,131.875 L517.25,431.125 L275.75,431.125 L275.75,131.875 z" fill-opacity="0" stroke="#000000" stroke-width="1.5"/>
      </g>
      <g>
        <g>
          <path d="M298.262,143.625 L404.762,143.625 L404.762,191.625 L298.262,191.625 L298.262,143.625 z" fill="#F29F56"/>
          <path d="M298.762,144.125 L405.262,144.125 L405.262,192.125 L298.762,192.125 L298.762,144.125 z" fill-opacity="0" stroke="#000000" stroke-width="1.5"/>
        </g>
        <text transform="matrix(1, 0, 0, 1, 351.928, 167.375)">
          <tspan x="-34.148" y="7" font-family="Helvetica" font-size="21" fill="#000000">Worker</tspan>
        </text>
      </g>
      <g>
        <path d="M298.262,211.5 L493.738,211.5 L493.738,413 L298.262,413 L298.262,211.5 z" fill="#CA9C09"/>
        <g>
          <path d="M298.762,212 L494.238,212 L494.238,413.5 L298.762,413.5 L298.762,212 z" fill="#CA9C09"/>
          <path d="M298.762,212 L494.238,212 L494.238,413.5 L298.762,413.5 L298.762,212 z" fill-opacity="0" stroke="#000000" stroke-width="3"/>
        </g>
      </g>
      <text transform="matrix(1, 0, 0, 1, 351.199, 226.5)">
        <tspan x="-36.017" y="6" font-family="Helvetica" font-size="18" fill="#000000">Executor</tspan>
      </text>
      <g>
        <g>
          <path d="M308.261,259 L407.238,259 L407.238,290.5 L308.261,290.5 L308.261,259 z" fill="#9DDDF4"/>
          <path d="M308.761,259.5 L407.738,259.5 L407.738,291 L308.761,291 L308.761,259.5 z" fill-opacity="0" stroke="#000000" stroke-width="1.5"/>
        </g>
        <text transform="matrix(1, 0, 0, 1, 361.21, 275.875)">
          <tspan x="-38.756" y="4.375" font-family="Helvetica" font-size="15" fill="#000000">RDD 1 (P2)</tspan>
        </text>
      </g>
      <g>
        <g>
          <g>
            <path d="M436.659,278.25 C430.238,278.25 425.034,272.877 425.034,266.25 C425.034,259.623 430.238,254.25 436.659,254.25 C443.079,254.25 448.284,259.623 448.284,266.25 C448.284,272.877 443.079,278.25 436.659,278.25 z" fill="#04A567"/>
            <path d="M437.159,278.75 C430.738,278.75 425.534,273.377 425.534,266.75 C425.534,260.123 430.738,254.75 437.159,254.75 C443.579,254.75 448.784,260.123 448.784,266.75 C448.784,273.377 443.579,278.75 437.159,278.75 z" fill-opacity="0" stroke="#029C1B" stroke-width="1.5"/>
          </g>
          <text transform="matrix(1, 0, 0, 1, 436.436, 264.5)">
            <tspan x="-4.581" y="5.5" font-family="Helvetica" font-size="15" fill="#FFFDFD">T</tspan>
          </text>
        </g>
        <g>
          <g>
            <path d="M437.284,249.75 C430.863,249.75 425.659,244.377 425.659,237.75 C425.659,231.123 430.863,225.75 437.284,225.75 C443.704,225.75 448.909,231.123 448.909,237.75 C448.909,244.377 443.704,249.75 437.284,249.75 z" fill="#04A567"/>
            <path d="M437.784,250.25 C431.363,250.25 426.159,244.877 426.159,238.25 C426.159,231.623 431.363,226.25 437.784,226.25 C444.204,226.25 449.409,231.623 449.409,238.25 C449.409,244.877 444.204,250.25 437.784,250.25 z" fill-opacity="0" stroke="#029C1B" stroke-width="1.5"/>
          </g>
          <text transform="matrix(1, 0, 0, 1, 437.482, 236)">
            <tspan x="-5.002" y="5.5" font-family="Helvetica" font-size="15" fill="#FFFDFD">S</tspan>
          </text>
        </g>
        <g>
          <g>
            <path d="M466.636,278.5 C460.215,278.5 455.011,273.127 455.011,266.5 C455.011,259.873 460.215,254.5 466.636,254.5 C473.056,254.5 478.261,259.873 478.261,266.5 C478.261,273.127 473.056,278.5 466.636,278.5 z" fill="#04A567"/>
            <path d="M467.136,279 C460.715,279 455.511,273.627 455.511,267 C455.511,260.373 460.715,255 467.136,255 C473.556,255 478.761,260.373 478.761,267 C478.761,273.627 473.556,279 467.136,279 z" fill-opacity="0" stroke="#029C1B" stroke-width="1.5"/>
          </g>
          <text transform="matrix(1, 0, 0, 1, 466.834, 264.75)">
            <tspan x="-5.002" y="5.5" font-family="Helvetica" font-size="15" fill="#FFFDFD">S</tspan>
          </text>
        </g>
        <g>
          <g>
            <path d="M467.636,307.5 C461.215,307.5 456.011,302.127 456.011,295.5 C456.011,288.873 461.215,283.5 467.636,283.5 C474.056,283.5 479.261,288.873 479.261,295.5 C479.261,302.127 474.056,307.5 467.636,307.5 z" fill="#04A567"/>
            <path d="M468.136,308 C461.715,308 456.511,302.627 456.511,296 C456.511,289.373 461.715,284 468.136,284 C474.556,284 479.761,289.373 479.761,296 C479.761,302.627 474.556,308 468.136,308 z" fill-opacity="0" stroke="#029C1B" stroke-width="1.5"/>
          </g>
          <text transform="matrix(1, 0, 0, 1, 467.834, 293.75)">
            <tspan x="-5.002" y="5.5" font-family="Helvetica" font-size="15" fill="#FFFDFD">S</tspan>
          </text>
        </g>
        <g>
          <g>
            <path d="M437.659,307.5 C431.238,307.5 426.034,302.127 426.034,295.5 C426.034,288.873 431.238,283.5 437.659,283.5 C444.079,283.5 449.284,288.873 449.284,295.5 C449.284,302.127 444.079,307.5 437.659,307.5 z" fill="#04A567"/>
            <path d="M438.159,308 C431.738,308 426.534,302.627 426.534,296 C426.534,289.373 431.738,284 438.159,284 C444.579,284 449.784,289.373 449.784,296 C449.784,302.627 444.579,308 438.159,308 z" fill-opacity="0" stroke="#029C1B" stroke-width="1.5"/>
          </g>
          <text transform="matrix(1, 0, 0, 1, 437.857, 293.75)">
            <tspan x="-5.002" y="5.5" font-family="Helvetica" font-size="15" fill="#FFFDFD">S</tspan>
          </text>
        </g>
        <g>
          <g>
            <path d="M465.636,248.25 C459.215,248.25 454.011,242.877 454.011,236.25 C454.011,229.623 459.215,224.25 465.636,224.25 C472.056,224.25 477.261,229.623 477.261,236.25 C477.261,242.877 472.056,248.25 465.636,248.25 z" fill="#04A567"/>
            <path d="M465.636,248.25 C459.215,248.25 454.011,242.877 454.011,236.25 C454.011,229.623 459.215,224.25 465.636,224.25 C472.056,224.25 477.261,229.623 477.261,236.25 C477.261,242.877 472.056,248.25 465.636,248.25 z" fill="#04A567"/>
          </g>
          <text transform="matrix(1, 0, 0, 1, 465.834, 234.5)">
            <tspan x="-5.002" y="5.5" font-family="Helvetica" font-size="15" fill="#FFFDFD">S</tspan>
          </text>
        </g>
      </g>
      <g>
        <path d="M398.348,245 C415.145,245 428.761,249.674 428.761,255.441" fill-opacity="0" stroke="#000000" stroke-width="1"/>
        <path d="M365.761,259 C365.761,251.268 380.351,245 398.348,245" fill-opacity="0" stroke="#000000" stroke-width="1"/>
      </g>
    </g>
    <g>
      <g>
        <path d="M541.5,131.375 L783,131.375 L783,430.625 L541.5,430.625 L541.5,131.375 z" fill="#908C8C"/>
        <path d="M542,131.875 L783.5,131.875 L783.5,431.125 L542,431.125 L542,131.875 z" fill-opacity="0" stroke="#000000" stroke-width="1.5"/>
      </g>
      <g>
        <g>
          <path d="M564.511,143.625 L671.011,143.625 L671.011,191.625 L564.511,191.625 L564.511,143.625 z" fill="#F29F56"/>
          <path d="M565.011,144.125 L671.511,144.125 L671.511,192.125 L565.011,192.125 L565.011,144.125 z" fill-opacity="0" stroke="#000000" stroke-width="1.5"/>
        </g>
        <text transform="matrix(1, 0, 0, 1, 618.178, 167.375)">
          <tspan x="-34.148" y="7" font-family="Helvetica" font-size="21" fill="#000000">Worker</tspan>
        </text>
      </g>
      <g>
        <path d="M564.511,211.5 L759.989,211.5 L759.989,413 L564.511,413 L564.511,211.5 z" fill="#CA9C09"/>
        <path d="M565.011,212 L760.489,212 L760.489,413.5 L565.011,413.5 L565.011,212 z" fill-opacity="0" stroke="#000000" stroke-width="3"/>
      </g>
      <text transform="matrix(1, 0, 0, 1, 617.449, 226.5)">
        <tspan x="-36.017" y="6" font-family="Helvetica" font-size="18" fill="#000000">Executor</tspan>
      </text>
      <g>
        <g>
          <path d="M574.511,259 L673.488,259 L673.488,290.5 L574.511,290.5 L574.511,259 z" fill="#9DDDF4"/>
          <path d="M575.011,259.5 L673.988,259.5 L673.988,291 L575.011,291 L575.011,259.5 z" fill-opacity="0" stroke="#000000" stroke-width="1.5"/>
        </g>
        <text transform="matrix(1, 0, 0, 1, 627.46, 275.875)">
          <tspan x="-38.756" y="4.375" font-family="Helvetica" font-size="15" fill="#000000">RDD 1 (P3)</tspan>
        </text>
      </g>
      <g>
        <g>
          <g>
            <path d="M709.398,277.75 C702.977,277.75 697.773,272.377 697.773,265.75 C697.773,259.123 702.977,253.75 709.398,253.75 C715.818,253.75 721.023,259.123 721.023,265.75 C721.023,272.377 715.818,277.75 709.398,277.75 z" fill="#04A567"/>
            <path d="M709.898,278.25 C703.477,278.25 698.273,272.877 698.273,266.25 C698.273,259.623 703.477,254.25 709.898,254.25 C716.318,254.25 721.523,259.623 721.523,266.25 C721.523,272.877 716.318,278.25 709.898,278.25 z" fill-opacity="0" stroke="#029C1B" stroke-width="1.5"/>
          </g>
          <text transform="matrix(1, 0, 0, 1, 709.595, 264)">
            <tspan x="-5.002" y="5.5" font-family="Helvetica" font-size="15" fill="#FFFDFD">S</tspan>
          </text>
        </g>
        <g>
          <g>
            <path d="M710.023,249.25 C703.602,249.25 698.398,243.877 698.398,237.25 C698.398,230.623 703.602,225.25 710.023,225.25 C716.443,225.25 721.648,230.623 721.648,237.25 C721.648,243.877 716.443,249.25 710.023,249.25 z" fill="#04A567"/>
            <path d="M710.523,249.75 C704.102,249.75 698.898,244.377 698.898,237.75 C698.898,231.123 704.102,225.75 710.523,225.75 C716.943,225.75 722.148,231.123 722.148,237.75 C722.148,244.377 716.943,249.75 710.523,249.75 z" fill-opacity="0" stroke="#029C1B" stroke-width="1.5"/>
          </g>
          <text transform="matrix(1, 0, 0, 1, 709.799, 235.5)">
            <tspan x="-4.581" y="5.5" font-family="Helvetica" font-size="15" fill="#FFFDFD">T</tspan>
          </text>
        </g>
        <g>
          <g>
            <path d="M739.375,278 C732.954,278 727.75,272.627 727.75,266 C727.75,259.373 732.954,254 739.375,254 C745.795,254 751,259.373 751,266 C751,272.627 745.795,278 739.375,278 z" fill="#04A567"/>
            <path d="M739.875,278.5 C733.454,278.5 728.25,273.127 728.25,266.5 C728.25,259.873 733.454,254.5 739.875,254.5 C746.295,254.5 751.5,259.873 751.5,266.5 C751.5,273.127 746.295,278.5 739.875,278.5 z" fill-opacity="0" stroke="#029C1B" stroke-width="1.5"/>
          </g>
          <text transform="matrix(1, 0, 0, 1, 739.572, 264.25)">
            <tspan x="-5.002" y="5.5" font-family="Helvetica" font-size="15" fill="#FFFDFD">S</tspan>
          </text>
        </g>
        <g>
          <g>
            <path d="M740.375,307 C733.954,307 728.75,301.627 728.75,295 C728.75,288.373 733.954,283 740.375,283 C746.795,283 752,288.373 752,295 C752,301.627 746.795,307 740.375,307 z" fill="#04A567"/>
            <path d="M740.875,307.5 C734.454,307.5 729.25,302.127 729.25,295.5 C729.25,288.873 734.454,283.5 740.875,283.5 C747.295,283.5 752.5,288.873 752.5,295.5 C752.5,302.127 747.295,307.5 740.875,307.5 z" fill-opacity="0" stroke="#029C1B" stroke-width="1.5"/>
          </g>
          <text transform="matrix(1, 0, 0, 1, 740.572, 293.25)">
            <tspan x="-5.002" y="5.5" font-family="Helvetica" font-size="15" fill="#FFFDFD">S</tspan>
          </text>
        </g>
        <g>
          <g>
            <path d="M710.398,307 C703.977,307 698.773,301.627 698.773,295 C698.773,288.373 703.977,283 710.398,283 C716.818,283 722.023,288.373 722.023,295 C722.023,301.627 716.818,307 710.398,307 z" fill="#04A567"/>
            <g>
              <path d="M710.898,307.5 C704.477,307.5 699.273,302.127 699.273,295.5 C699.273,288.873 704.477,283.5 710.898,283.5 C717.318,283.5 722.523,288.873 722.523,295.5 C722.523,302.127 717.318,307.5 710.898,307.5 z" fill="#04A567"/>
              <path d="M710.898,307.5 C704.477,307.5 699.273,302.127 699.273,295.5 C699.273,288.873 704.477,283.5 710.898,283.5 C717.318,283.5 722.523,288.873 722.523,295.5 C722.523,302.127 717.318,307.5 710.898,307.5 z" fill-opacity="0" stroke="#029C1B" stroke-width="1.5"/>
            </g>
          </g>
          <text transform="matrix(1, 0, 0, 1, 710.595, 293.25)">
            <tspan x="-5.002" y="5.5" font-family="Helvetica" font-size="15" fill="#04A567">S</tspan>
          </text>
        </g>
        <g>
          <g>
            <path d="M738.375,247.75 C731.954,247.75 726.75,242.377 726.75,235.75 C726.75,229.123 731.954,223.75 738.375,223.75 C744.795,223.75 750,229.123 750,235.75 C750,242.377 744.795,247.75 738.375,247.75 z" fill="#04A567"/>
            <g>
              <path d="M738.875,248.25 C732.454,248.25 727.25,242.877 727.25,236.25 C727.25,229.623 732.454,224.25 738.875,224.25 C745.295,224.25 750.5,229.623 750.5,236.25 C750.5,242.877 745.295,248.25 738.875,248.25 z" fill="#04A567"/>
              <path d="M738.875,248.25 C732.454,248.25 727.25,242.877 727.25,236.25 C727.25,229.623 732.454,224.25 738.875,224.25 C745.295,224.25 750.5,229.623 750.5,236.25 C750.5,242.877 745.295,248.25 738.875,248.25 z" fill-opacity="0" stroke="#04A567" stroke-width="1.5"/>
            </g>
          </g>
          <text transform="matrix(1, 0, 0, 1, 738.572, 234)">
            <tspan x="-5.002" y="5.5" font-family="Helvetica" font-size="15" fill="#FFFDFD">S</tspan>
          </text>
        </g>
      </g>
      <text transform="matrix(1, 0, 0, 1, 709.498, 296)">
        <tspan x="-5.002" y="5.5" font-family="Helvetica" font-size="15" fill="#FFFDFD">S</tspan>
      </text>
      <g>
        <path d="M664.165,232.728 C682.978,225.448 699.893,223.844 701.945,229.147" fill-opacity="0" stroke="#000000" stroke-width="1"/>
        <path d="M632.648,259.726 C629.897,252.616 644.007,240.528 664.165,232.728" fill-opacity="0" stroke="#000000" stroke-width="1"/>
      </g>
    </g>
    <g>
      <text transform="matrix(1, 0, 0, 1, 667.16, 77.375)">
        <tspan x="-50.004" y="-31" font-family="HelveticaNeue" font-size="24" fill="#000000">source of </tspan>
        <tspan x="-52.908" y="-2" font-family="HelveticaNeue" font-size="24" fill="#000000">streaming </tspan>
        <tspan x="-23.784" y="27" font-family="HelveticaNeue" font-size="24" fill="#000000">data</tspan>
      </text>
      <g>
        <path d="M746.02,105.435 C763.092,105.332 783.5,90.529 783.5,72.087 C783.5,53.58 769.595,38.577 752.442,38.577 C749.925,38.577 747.481,38.907 745.138,39.517 C740.438,23.348 719.618,11.159 694.64,11.159 C684.853,11.159 675.702,13.031 667.911,16.279 C661.877,8.788 653.023,4.051 643.144,4.051 C625.771,4.051 611.551,18.687 610.324,37.233 C605.776,33.525 600.243,31.343 594.269,31.343 C578.793,31.343 566.247,45.946 566.247,63.963 C566.247,81.98 578.793,96.584 594.269,96.584 C595.884,96.584 597.464,96.416 599.003,96.111 C603.364,112.933 612.847,112.826 621.396,116.992" fill-opacity="0" stroke="#000000" stroke-width="1" stroke-miterlimit="10"/>
        <path d="M682.374,119.923 C687.965,118.159 693.034,115.864 697.386,113.138 C702.564,117.904 709.625,119.463 717.181,120.828 C734.042,123.874 746.02,108.987 746.02,105.435" fill-opacity="0" stroke="#000000" stroke-width="1" stroke-miterlimit="10"/>
        <path d="M621.396,116.992 C631.021,121.313 642.889,123.875 655.751,123.875 C671.97,123.875 678.781,120.35 682.374,119.923" fill-opacity="0" stroke="#000000" stroke-width="1" stroke-miterlimit="10"/>
      </g>
    </g>
    <path d="M136.5,195 L136.5,195" fill-opacity="0" stroke="#000000" stroke-width="1"/>
    <g>
      <path d="M362.836,32.312 C359.18,34.671 357.829,37.79 358.306,42.735 C358.783,46.919 361.644,50.723 365.062,51.483 C366.652,51.864 366.89,52.472 366.89,55.211 C366.89,58.254 366.731,58.558 364.267,59.319 C361.485,60.232 357.432,63.807 355.762,67.003 C354.491,69.361 354.491,76.055 355.762,78.414 C357.432,81.609 361.485,85.184 364.267,86.097 C366.731,86.858 366.89,87.162 366.89,90.205 C366.89,92.944 366.652,93.553 365.062,93.933 C364.108,94.161 362.28,95.378 361.008,96.596 C357.988,99.639 357.193,105.572 359.339,109.376 C363.79,117.288 375.872,116.755 379.687,108.387 C382.23,102.91 380.243,97.432 374.679,94.389 C371.977,92.944 371.659,92.411 371.659,89.825 C371.659,87.314 371.977,86.858 374.043,86.097 C375.395,85.717 377.62,84.576 378.971,83.663 C381.276,82.065 381.515,81.989 383.899,83.283 C386.125,84.424 386.363,84.88 386.363,88.227 C386.363,92.259 387.874,94.922 391.768,97.737 C394.789,99.867 400.75,99.791 404.088,97.508 C411.003,92.792 410.606,82.294 403.373,78.718 C400.034,77.12 393.04,77.577 390.735,79.555 C389.145,80.924 388.986,80.924 386.522,79.707 C383.979,78.338 383.899,78.262 383.899,72.708 C383.899,67.155 383.979,67.079 386.522,65.709 C388.986,64.492 389.145,64.492 390.735,65.861 C393.04,67.839 400.034,68.296 403.373,66.698 C406.79,64.948 409.016,61.297 409.016,57.265 C409.016,50.723 404.406,46.158 397.729,46.158 C391.212,46.158 386.363,50.875 386.363,57.189 C386.363,60.536 386.125,60.993 383.899,62.134 C381.515,63.427 381.276,63.351 378.971,61.753 C377.62,60.84 375.395,59.699 374.043,59.319 C371.977,58.558 371.659,58.102 371.659,55.515 C371.659,52.853 371.977,52.396 374.679,51.103 C380.084,48.44 382.23,42.506 379.687,37.029 C376.746,30.639 368.798,28.433 362.836,32.312 z M372.772,37.409 C376.746,40.452 374.679,46.462 369.592,46.462 C364.188,46.462 361.883,41.289 365.698,37.714 C368.082,35.431 369.99,35.355 372.772,37.409 z M401.783,53.766 C403.929,56.428 403.85,58.254 401.465,60.536 C397.888,64.036 392.325,61.982 392.325,57.113 C392.325,52.168 398.604,49.962 401.783,53.766 z M374.997,67.535 C380.084,72.176 376.349,80.316 369.195,80.316 C362.757,80.316 359.101,73.012 362.995,68.22 C366.334,64.188 371.103,63.96 374.997,67.535 z M401.465,84.88 C403.929,87.162 404.009,89.597 401.703,91.879 C398.286,95.378 392.325,93.096 392.325,88.303 C392.325,83.435 397.888,81.381 401.465,84.88 z M373.567,100.628 C375.474,103.214 375.156,106.181 372.772,108.007 C371.58,108.92 369.99,109.604 369.116,109.604 C366.97,109.604 363.711,106.181 363.711,103.899 C363.711,99.41 370.944,97.052 373.567,100.628 z" fill="#000000"/>
      <text transform="matrix(1, 0, 0, 1, 445.272, 69.375)">
        <tspan x="-30.672" y="-6" font-family="HelveticaNeue" font-size="24" fill="#000000">Kafka</tspan>
        <tspan x="-36.228" y="23" font-family="HelveticaNeue" font-size="24" fill="#000000">source</tspan>
      </text>
    </g>
    <g>
      <path d="M337.5,79.5 L223.975,133.516" fill-opacity="0" stroke="#F70101" stroke-width="4"/>
      <path d="M223.975,133.516 L224.802,127.807 L215.306,137.641 L228.927,136.476 z" fill="#F70101" fill-opacity="1" stroke="#F70101" stroke-width="4" stroke-opacity="1"/>
    </g>
    <g>
      <g>
        <path d="M437.708,249.833 C431.287,249.833 426.083,244.46 426.083,237.833 C426.083,231.206 431.287,225.833 437.708,225.833 C444.128,225.833 449.333,231.206 449.333,237.833 C449.333,244.46 444.128,249.833 437.708,249.833 z" fill="#FF2A00"/>
        <path d="M438.208,250.333 C431.787,250.333 426.583,244.96 426.583,238.333 C426.583,231.706 431.787,226.333 438.208,226.333 C444.628,226.333 449.833,231.706 449.833,238.333 C449.833,244.96 444.628,250.333 438.208,250.333 z" fill-opacity="0" stroke="#590900" stroke-width="1.5"/>
      </g>
      <text transform="matrix(1, 0, 0, 1, 438.32, 236.083)">
        <tspan x="-5.416" y="5.5" font-family="Helvetica" font-size="15" fill="#FFFDFD">R</tspan>
      </text>
    </g>
    <g>
      <path d="M571.5,93.5 L457.668,217.779" fill-opacity="0" stroke="#F70101" stroke-width="4"/>
      <path d="M457.668,217.779 L456.29,212.177 L451.184,224.859 L463.369,218.662 z" fill="#F70101" fill-opacity="1" stroke="#F70101" stroke-width="4" stroke-opacity="1"/>
    </g>
  </g>
</svg>
